<?xml version="1.0" encoding="utf-8"?>
<!-- Generator: Adobe Illustrator 19.1.0, SVG Export Plug-In . SVG Version: 6.00 Build 0)  -->
<svg version="1.1" xmlns="http://www.w3.org/2000/svg" xmlns:xlink="http://www.w3.org/1999/xlink" x="0px" y="0px"
	 viewBox="0 0 40 40" style="enable-background:new 0 0 40 40;" xml:space="preserve">
<style type="text/css">
	.st0{fill:none;stroke:#000000;stroke-width:2;stroke-linecap:round;stroke-miterlimit:10;}
	.st1{fill:#020202;}
	.st2{fill:none;stroke:#000000;stroke-width:0.9665;stroke-linecap:round;stroke-miterlimit:10;}
	.st3{fill:none;stroke:#000000;stroke-linecap:round;stroke-miterlimit:10;}
	.st4{fill:none;stroke:#000000;stroke-width:3;stroke-miterlimit:10;}
	.st5{fill:none;stroke:#000000;stroke-width:1.4;stroke-miterlimit:10;}
	.st6{fill:none;stroke:#575756;stroke-width:0.8068;stroke-miterlimit:22.926;}
	.st7{fill:none;stroke:#575756;stroke-width:0.4148;stroke-miterlimit:22.926;}
	.st8{fill-rule:evenodd;clip-rule:evenodd;fill:#FFFFFF;}
	.st9{fill-rule:evenodd;clip-rule:evenodd;fill:#1D1D1B;}
	.st10{fill:#575756;}
	.st11{fill-rule:evenodd;clip-rule:evenodd;fill:#6F6F6E;}
	.st12{fill:none;stroke:#575756;stroke-width:0.4235;stroke-miterlimit:22.9256;}
	.st13{fill-rule:evenodd;clip-rule:evenodd;fill:#ECECEC;}
	.st14{fill-rule:evenodd;clip-rule:evenodd;fill:#B1B1B1;}
	.st15{fill:none;stroke:#1D1D1B;stroke-width:0.5883;stroke-miterlimit:22.9256;}
	.st16{fill-rule:evenodd;clip-rule:evenodd;fill:#575756;}
	.st17{fill:none;stroke:#9C9B9B;stroke-width:0.4124;stroke-miterlimit:22.926;}
	.st18{fill:none;stroke:#575756;stroke-width:0.4124;stroke-linecap:round;stroke-linejoin:round;stroke-miterlimit:22.926;}
	.st19{fill-rule:evenodd;clip-rule:evenodd;fill:#D9D9D9;}
	.st20{fill:none;stroke:#1D1D1B;stroke-width:0.4124;stroke-miterlimit:22.926;}
	.st21{fill:none;stroke:#575756;stroke-width:0.4124;stroke-miterlimit:22.926;}
	.st22{fill:none;stroke:#575756;stroke-width:0.8021;stroke-miterlimit:22.926;}
	.st23{fill:none;stroke:#9C9B9B;stroke-width:0.4127;stroke-miterlimit:22.926;}
	.st24{fill:none;stroke:#575756;stroke-width:0.4127;stroke-linecap:round;stroke-linejoin:round;stroke-miterlimit:22.926;}
	.st25{fill:none;stroke:#1D1D1B;stroke-width:0.4127;stroke-miterlimit:22.926;}
	.st26{fill:none;stroke:#575756;stroke-width:0.4127;stroke-miterlimit:22.926;}
	.st27{fill:none;stroke:#575756;stroke-width:0.8028;stroke-miterlimit:22.926;}
	.st28{fill:none;stroke:#575756;stroke-width:0.8274;stroke-miterlimit:22.9256;}
	.st29{fill:none;stroke:#575756;stroke-width:0.1787;stroke-miterlimit:22.9256;}
	.st30{fill:none;stroke:#575756;stroke-width:0.5863;stroke-miterlimit:22.9256;}
	.st31{fill:none;stroke:#575756;stroke-width:0.9479;stroke-miterlimit:22.9256;}
	.st32{fill:none;stroke:#575756;stroke-width:0.2047;stroke-miterlimit:22.9256;}
	.st33{fill:none;stroke:#575756;stroke-width:0.6717;stroke-miterlimit:22.9256;}
	.st34{fill:none;stroke:#575756;stroke-width:0.923;stroke-miterlimit:22.9256;}
	.st35{fill:none;stroke:#575756;stroke-width:0.1994;stroke-miterlimit:22.9256;}
	.st36{fill:none;stroke:#575756;stroke-width:0.6541;stroke-miterlimit:22.9256;}
	.st37{fill:none;stroke:#575756;stroke-width:1.0531;stroke-miterlimit:22.926;}
	.st38{fill:none;stroke:#575756;stroke-width:0.2275;stroke-miterlimit:22.926;}
	.st39{fill:none;stroke:#575756;stroke-width:0.7466;stroke-miterlimit:22.926;}
	.st40{fill:none;stroke:#575756;stroke-width:0.3576;stroke-miterlimit:22.9256;}
	.st41{fill:none;stroke:#C6C6C5;stroke-width:0.4127;stroke-linecap:round;stroke-linejoin:round;stroke-miterlimit:22.926;}
	.st42{fill:none;stroke:#575756;stroke-width:0.1748;stroke-linecap:round;stroke-linejoin:round;stroke-miterlimit:22.926;}
	.st43{fill:none;stroke:#575756;stroke-width:0.5;stroke-miterlimit:22.9256;}
	.st44{fill:none;stroke:#C6C6C5;stroke-width:0.1748;stroke-linecap:round;stroke-linejoin:round;stroke-miterlimit:22.926;}
	.st45{fill:none;stroke:#575756;stroke-width:0.2978;stroke-linecap:round;stroke-linejoin:round;stroke-miterlimit:22.926;}
	.st46{fill:none;stroke:#B1B1B1;stroke-width:0.2978;stroke-linecap:round;stroke-linejoin:round;stroke-miterlimit:22.926;}
	.st47{fill:none;stroke:#575756;stroke-width:0.4047;stroke-miterlimit:22.926;}
	.st48{fill:none;stroke:#575756;stroke-width:0.1748;stroke-miterlimit:22.926;}
	.st49{fill:#FFFFFF;stroke:#575756;stroke-width:0.5698;stroke-miterlimit:10;}
	.st50{fill:#FFFFFF;stroke:#575756;stroke-width:0.5629;stroke-miterlimit:10;}
	.st51{fill:#FFFFFF;stroke:#575756;stroke-width:0.2849;stroke-miterlimit:10;}
	.st52{fill:#FFFFFF;}
	.st53{fill:#FFFFFF;stroke:#1D1D1B;stroke-width:0.2849;stroke-miterlimit:10;}
	.st54{fill:#1D1D1B;}
	.st55{fill:none;stroke:#575756;stroke-width:0.1787;stroke-miterlimit:10;}
	.st56{fill:none;stroke:#C6C6C5;stroke-width:0.1748;stroke-miterlimit:22.926;}
	.st57{fill:none;stroke:#575756;stroke-width:0.4098;stroke-miterlimit:22.926;}
	.st58{fill:none;stroke:#575756;stroke-width:0.4098;stroke-linecap:round;stroke-linejoin:round;stroke-miterlimit:22.926;}
	.st59{fill:none;stroke:#3C3C3B;stroke-width:0.7971;stroke-miterlimit:22.926;}
	.st60{fill:none;stroke:#000000;stroke-miterlimit:10;}
	.st61{fill:none;stroke:#000000;stroke-width:0.5;stroke-miterlimit:10;}
	.st62{stroke:#000000;stroke-width:0.5;stroke-miterlimit:10;}
	.st63{fill:none;stroke:#000000;stroke-width:3;stroke-linecap:round;stroke-miterlimit:10;}
</style>
<g id="inne">
</g>
<g id="parasole">
</g>
<g id="markizy_i_zadaszenia">
</g>
<g id="Layer_13">
</g>
<g id="Layer_12">
	<g>
		<rect x="0.5" y="0.5" class="st8" width="39" height="39"/>
		<rect x="0.5" y="0.5" class="st17" width="39" height="39"/>
		<polygon class="st8" points="0.5,28 6.9,29.2 21.4,11.7 0.5,17.5 		"/>
		<polygon class="st18" points="0.5,28 6.9,29.2 21.4,11.7 0.5,17.5 		"/>
		<polygon class="st8" points="39.5,27 6.9,29.2 21.4,11.7 39.5,17 		"/>
		<polygon class="st18" points="39.5,27 6.9,29.2 21.4,11.7 39.5,17 		"/>
		<path class="st19" d="M24,12.6c0,0.3-1.4,0.6-3,0.6c-1.7,0-3-0.3-3-0.6c0-0.6,1.6-1.2,3.1-1.2C22.3,11.4,24,11.8,24,12.6z"/>
		<path class="st20" d="M24,12.6c0,0.3-1.4,0.6-3,0.6c-1.7,0-3-0.3-3-0.6c0-0.6,1.6-1.2,3.1-1.2C22.3,11.4,24,11.8,24,12.6z"/>
		<path class="st8" d="M24,12.6c0,0.3-1.2,0.6-2.7,0.6c-0.6,0-1.2,0-1.6-0.1c-0.1-0.1-0.1-0.1-0.1-0.2c0-0.7,1.4-1.4,2.7-1.4l0.1,0
			C23.2,11.6,24,12,24,12.6z"/>
		<path class="st20" d="M24,12.6c0,0.3-1.2,0.6-2.7,0.6c-0.6,0-1.2,0-1.6-0.1c-0.1-0.1-0.1-0.1-0.1-0.2c0-0.7,1.4-1.4,2.7-1.4l0.1,0
			C23.2,11.6,24,12,24,12.6z"/>
		<path class="st8" d="M23.9,12.6c0,0.3-1.4,0.6-3,0.6s-3-0.3-3-0.6c0-0.6,1.6-1.2,3.1-1.2C22.3,11.4,23.9,11.8,23.9,12.6z"/>
		<path class="st21" d="M23.9,12.6c0,0.3-1.4,0.6-3,0.6s-3-0.3-3-0.6c0-0.6,1.6-1.2,3.1-1.2C22.3,11.4,23.9,11.8,23.9,12.6z"/>
		<polygon class="st8" points="19.9,28.3 22.2,28.2 22.2,39.5 19.9,39.5 		"/>
		<polygon class="st18" points="19.9,28.3 22.2,28.2 22.2,39.5 19.9,39.5 		"/>
		<path class="st8" d="M7.5,29.1v4.4c0,1.5,0.9,2.4,1.9,2.4l30.1-2.8V27L7.5,29.1z"/>
		<path class="st21" d="M7.5,29.1v4.4c0,1.5,0.9,2.4,1.9,2.4l30.1-2.8V27L7.5,29.1z"/>
		<path class="st8" d="M6.7,29v4.4c0,1.2-0.5,2.5-1.9,2.2l-4.3-1.2v-6.6L6.7,29z"/>
		<path class="st21" d="M6.7,29v4.4c0,1.2-0.5,2.5-1.9,2.2l-4.3-1.2v-6.6L6.7,29z"/>
		<rect x="0.5" y="0.5" class="st22" width="39" height="39"/>
	</g>
</g>
<g id="Layer_10">
</g>
<g id="Layer_11">
</g>
<g id="podstawy">
</g>
<g id="osłony_zewnętrzne">
</g>
<g id="osłony_wewnętrzne">
</g>
<g id="interface">
</g>
<g id="kategorie">
</g>
</svg>
