<?xml version="1.0" encoding="utf-8"?>
<!-- Generator: Adobe Illustrator 19.2.1, SVG Export Plug-In . SVG Version: 6.00 Build 0)  -->
<svg version="1.1" id="Layer_1" xmlns="http://www.w3.org/2000/svg" xmlns:xlink="http://www.w3.org/1999/xlink" x="0px" y="0px"
	 width="40px" height="40px" viewBox="0 0 40 40" enable-background="new 0 0 40 40" xml:space="preserve">
<g id="inne">
</g>
<g id="parasole">
</g>
<g id="markizy_i_zadaszenia">
</g>
<g id="Layer_13">
</g>
<g id="Layer_12">
</g>
<g id="Layer_10">
</g>
<g id="Layer_11">
</g>
<g id="podstawy">
	<g>
		<rect x="0.5" y="0.5" fill="#FFFFFF" width="39" height="39"/>
		<rect x="0.5" y="0.5" fill="none" stroke="#575756" stroke-width="0.8028" stroke-miterlimit="22.926" width="39" height="39"/>
		<ellipse fill="#FFFFFF" cx="20.1" cy="21.2" rx="14.6" ry="12.4"/>
		
			<ellipse fill="none" stroke="#575756" stroke-width="0.4127" stroke-linecap="round" stroke-linejoin="round" stroke-miterlimit="22.926" cx="20.1" cy="21.2" rx="14.6" ry="12.4"/>
		
			<ellipse fill="none" stroke="#575756" stroke-width="0.4127" stroke-linecap="round" stroke-linejoin="round" stroke-miterlimit="22.926" cx="20" cy="20" rx="14" ry="11.2"/>
		<ellipse fill="#FFFFFF" cx="19.8" cy="8" rx="1.7" ry="1"/>
		
			<ellipse fill="none" stroke="#575756" stroke-width="0.4127" stroke-linecap="round" stroke-linejoin="round" stroke-miterlimit="22.926" cx="19.8" cy="8" rx="1.7" ry="1"/>
		<path fill="#FFFFFF" d="M21.3,20c0,0.5-0.6,0.9-1.4,0.9s-1.4-0.4-1.4-0.9L18.1,8.2c0.1,0.5,0.8,0.9,1.7,0.9c0.8,0,1.5-0.4,1.7-0.9
			l0,0L21.3,20z"/>
		
			<path fill="none" stroke="#575756" stroke-width="0.4127" stroke-linecap="round" stroke-linejoin="round" stroke-miterlimit="22.926" d="
			M21.3,20c0,0.5-0.6,0.9-1.4,0.9s-1.4-0.4-1.4-0.9L18.1,8.2c0.1,0.5,0.8,0.9,1.7,0.9c0.8,0,1.5-0.4,1.7-0.9l0,0L21.3,20z"/>
		<ellipse fill="#FFFFFF" cx="19.8" cy="8" rx="1.3" ry="0.7"/>
		
			<ellipse fill="none" stroke="#575756" stroke-width="0.4127" stroke-linecap="round" stroke-linejoin="round" stroke-miterlimit="22.926" cx="19.8" cy="8" rx="1.3" ry="0.7"/>
	</g>
</g>
<g id="osłony_zewnętrzne">
</g>
<g id="osłony_wewnętrzne">
</g>
<g id="interface">
</g>
<g id="kategorie">
</g>
</svg>
