<?xml version="1.0" encoding="utf-8"?>
<!-- Generator: Adobe Illustrator 19.2.1, SVG Export Plug-In . SVG Version: 6.00 Build 0)  -->
<svg version="1.1" id="Layer_1" xmlns="http://www.w3.org/2000/svg" xmlns:xlink="http://www.w3.org/1999/xlink" x="0px" y="0px"
	 width="40px" height="40px" viewBox="0 0 40 40" enable-background="new 0 0 40 40" xml:space="preserve">
<g id="inne">
</g>
<g id="parasole">
</g>
<g id="markizy_i_zadaszenia">
</g>
<g id="Layer_13">
</g>
<g id="Layer_12">
</g>
<g id="Layer_10">
</g>
<g id="Layer_11">
</g>
<g id="podstawy">
	<g>
		<rect x="0.5" y="0.4" fill="none" stroke="#575756" stroke-width="0.8028" stroke-miterlimit="22.926" width="39" height="39"/>
		<path fill="none" stroke="#575756" stroke-width="0.5" stroke-miterlimit="22.9256" d="M23,9.6c0,0.8-0.9,1.4-2.1,1.7h-1.6
			c-1.4-0.2-2.4-0.9-2.4-1.7"/>
		<line fill="none" stroke="#575756" stroke-width="0.5" stroke-miterlimit="22.9256" x1="16.9" y1="0.7" x2="16.9" y2="9.6"/>
		<line fill="none" stroke="#575756" stroke-width="0.5" stroke-miterlimit="22.9256" x1="23" y1="0.7" x2="23" y2="9.6"/>
		<polyline fill="none" stroke="#575756" stroke-width="0.5" stroke-miterlimit="22.9256" points="23,5.5 30.4,9.6 30.4,10 20,15.9 
			9.7,10 9.7,9.7 16.9,5.5 		"/>
		<line fill="none" stroke="#575756" stroke-width="0.5" stroke-miterlimit="22.9256" x1="20" y1="15.6" x2="30.4" y2="9.6"/>
		<line fill="none" stroke="#575756" stroke-width="0.5" stroke-miterlimit="22.9256" x1="9.7" y1="9.7" x2="20" y2="15.6"/>
		<ellipse fill="none" stroke="#575756" stroke-width="0.5" stroke-miterlimit="22.9256" cx="20" cy="13.7" rx="0.6" ry="0.4"/>
		<path fill="none" stroke="#575756" stroke-width="0.5" stroke-miterlimit="22.9256" d="M19.5,13.8c0.1-0.1,0.3-0.2,0.6-0.2
			c0.3,0,0.5,0.1,0.6,0.2"/>
		<ellipse fill="none" stroke="#575756" stroke-width="0.5" stroke-miterlimit="22.9256" cx="13.1" cy="9.7" rx="0.6" ry="0.4"/>
		<path fill="none" stroke="#575756" stroke-width="0.5" stroke-miterlimit="22.9256" d="M12.5,9.8c0.1-0.1,0.3-0.2,0.6-0.2
			s0.5,0.1,0.6,0.2"/>
		<ellipse fill="none" stroke="#575756" stroke-width="0.5" stroke-miterlimit="22.9256" cx="27" cy="9.7" rx="0.6" ry="0.4"/>
		<path fill="none" stroke="#575756" stroke-width="0.5" stroke-miterlimit="22.9256" d="M26.5,9.8c0.1-0.1,0.3-0.2,0.6-0.2
			c0.3,0,0.5,0.1,0.6,0.2"/>
		<ellipse fill="none" stroke="#575756" stroke-width="0.5" stroke-miterlimit="22.9256" cx="20" cy="13.7" rx="0.6" ry="0.4"/>
		<path fill="none" stroke="#575756" stroke-width="0.5" stroke-miterlimit="22.9256" d="M19.5,13.8c0.1-0.1,0.3-0.2,0.6-0.2
			c0.3,0,0.5,0.1,0.6,0.2"/>
		<ellipse fill="none" stroke="#575756" stroke-width="0.5" stroke-miterlimit="22.9256" cx="27" cy="9.7" rx="0.6" ry="0.4"/>
		<path fill="none" stroke="#575756" stroke-width="0.5" stroke-miterlimit="22.9256" d="M26.5,9.8c0.1-0.1,0.3-0.2,0.6-0.2
			c0.3,0,0.5,0.1,0.6,0.2"/>
		<polyline fill="none" stroke="#575756" stroke-width="0.5" stroke-miterlimit="22.9256" points="24.8,13.8 30.4,16.9 30.4,17.3 
			20,23.2 9.7,17.3 9.7,17 14.8,14 		"/>
		<line fill="none" stroke="#575756" stroke-width="0.5" stroke-miterlimit="22.9256" x1="20" y1="22.9" x2="30.4" y2="16.9"/>
		<line fill="none" stroke="#575756" stroke-width="0.5" stroke-miterlimit="22.9256" x1="9.7" y1="17" x2="20" y2="22.9"/>
		<ellipse fill="none" stroke="#575756" stroke-width="0.5" stroke-miterlimit="22.9256" cx="20" cy="21" rx="0.6" ry="0.4"/>
		<path fill="none" stroke="#575756" stroke-width="0.5" stroke-miterlimit="22.9256" d="M19.5,21.1c0.1-0.1,0.3-0.2,0.6-0.2
			c0.3,0,0.5,0.1,0.6,0.2"/>
		<ellipse fill="none" stroke="#575756" stroke-width="0.5" stroke-miterlimit="22.9256" cx="13" cy="17" rx="0.6" ry="0.4"/>
		<path fill="none" stroke="#575756" stroke-width="0.5" stroke-miterlimit="22.9256" d="M12.5,17.1c0.1-0.1,0.3-0.2,0.6-0.2
			s0.5,0.1,0.6,0.2"/>
		<ellipse fill="none" stroke="#575756" stroke-width="0.5" stroke-miterlimit="22.9256" cx="27" cy="17" rx="0.6" ry="0.4"/>
		<path fill="none" stroke="#575756" stroke-width="0.5" stroke-miterlimit="22.9256" d="M26.5,17.1c0.1-0.1,0.3-0.2,0.6-0.2
			c0.3,0,0.5,0.1,0.6,0.2"/>
		<ellipse fill="none" stroke="#575756" stroke-width="0.5" stroke-miterlimit="22.9256" cx="20" cy="21" rx="0.6" ry="0.4"/>
		<path fill="none" stroke="#575756" stroke-width="0.5" stroke-miterlimit="22.9256" d="M19.5,21.1c0.1-0.1,0.3-0.2,0.6-0.2
			c0.3,0,0.5,0.1,0.6,0.2"/>
		<ellipse fill="none" stroke="#575756" stroke-width="0.5" stroke-miterlimit="22.9256" cx="27" cy="17" rx="0.6" ry="0.4"/>
		<path fill="none" stroke="#575756" stroke-width="0.5" stroke-miterlimit="22.9256" d="M26.5,17.1c0.1-0.1,0.3-0.2,0.6-0.2
			c0.3,0,0.5,0.1,0.6,0.2"/>
		<path fill="none" stroke="#575756" stroke-width="0.5" stroke-miterlimit="22.9256" d="M23.4,29.3l3.7-2.1 M29.2,25.9l-0.4,0.3
			 M29.9,26.9c0-0.1,0-0.4-0.1-0.6c-0.1-0.3-0.4-0.5-0.6-0.4"/>
		<path fill="none" stroke="#575756" stroke-width="0.5" stroke-miterlimit="22.9256" d="M28,20.7c0,0.3-0.4,0.5-1,0.5
			c-0.5,0-1-0.2-1-0.5"/>
		<polyline fill="none" stroke="#575756" stroke-width="0.5" stroke-miterlimit="22.9256" points="26,20.2 25.1,20.7 25.1,20.9 
			27.1,22 29,20.9 29,20.6 28.2,20.2 		"/>
		<polyline fill="none" stroke="#575756" stroke-width="0.5" stroke-miterlimit="22.9256" points="25.1,20.7 27.1,21.8 29,20.7 		
			"/>
		<line fill="none" stroke="#575756" stroke-width="0.5" stroke-miterlimit="22.9256" x1="27.1" y1="21.8" x2="27.1" y2="22"/>
		<line fill="none" stroke="#575756" stroke-width="0.5" stroke-miterlimit="22.9256" x1="26.1" y1="19.9" x2="26.1" y2="20.7"/>
		<line fill="none" stroke="#575756" stroke-width="0.5" stroke-miterlimit="22.9256" x1="28.1" y1="18.9" x2="28" y2="20.7"/>
		<path fill="none" stroke="#575756" stroke-width="0.5" stroke-miterlimit="22.9256" d="M21,24.6c0,0.3-0.4,0.5-1,0.5
			c-0.5,0-1-0.2-1-0.5"/>
		<polyline fill="none" stroke="#575756" stroke-width="0.5" stroke-miterlimit="22.9256" points="18.9,24.2 18.1,24.6 18.1,24.9 
			20,26 22,24.9 22,24.6 21.2,24.2 		"/>
		<polyline fill="none" stroke="#575756" stroke-width="0.5" stroke-miterlimit="22.9256" points="18.1,24.7 20.1,25.7 22,24.6 		
			"/>
		<line fill="none" stroke="#575756" stroke-width="0.5" stroke-miterlimit="22.9256" x1="20.1" y1="25.7" x2="20" y2="26"/>
		<line fill="none" stroke="#575756" stroke-width="0.5" stroke-miterlimit="22.9256" x1="19.1" y1="23" x2="19.1" y2="24.6"/>
		<line fill="none" stroke="#575756" stroke-width="0.5" stroke-miterlimit="22.9256" x1="21" y1="22.9" x2="21" y2="24.6"/>
		<path fill="none" stroke="#575756" stroke-width="0.5" stroke-miterlimit="22.9256" d="M14,20.7c0,0.3-0.4,0.5-1,0.5
			c-0.5,0-1-0.2-1-0.5"/>
		<polyline fill="none" stroke="#575756" stroke-width="0.5" stroke-miterlimit="22.9256" points="11.9,20.2 11.1,20.7 11.1,20.9 
			13,22 15,20.9 15,20.7 14.2,20.2 		"/>
		<polyline fill="none" stroke="#575756" stroke-width="0.5" stroke-miterlimit="22.9256" points="11.1,20.7 13.1,21.8 15,20.7 		
			"/>
		<line fill="none" stroke="#575756" stroke-width="0.5" stroke-miterlimit="22.9256" x1="13.1" y1="21.8" x2="13" y2="22"/>
		<line fill="none" stroke="#575756" stroke-width="0.5" stroke-miterlimit="22.9256" x1="12.1" y1="19" x2="12.1" y2="20.7"/>
		<line fill="none" stroke="#575756" stroke-width="0.5" stroke-miterlimit="22.9256" x1="14" y1="20" x2="14" y2="20.7"/>
		<line fill="none" stroke="#575756" stroke-width="0.5" stroke-miterlimit="22.9256" x1="23.3" y1="23.1" x2="23.3" y2="21.3"/>
		<line fill="none" stroke="#575756" stroke-width="0.5" stroke-miterlimit="22.9256" x1="23.4" y1="39.6" x2="23.3" y2="25"/>
		<line fill="none" stroke="#575756" stroke-width="0.5" stroke-miterlimit="22.9256" x1="16.9" y1="34.6" x2="16.9" y2="39.6"/>
		<line fill="none" stroke="#575756" stroke-width="0.5" stroke-miterlimit="22.9256" x1="16.8" y1="21.4" x2="16.9" y2="32.8"/>
		<line fill="none" stroke="#575756" stroke-width="0.5" stroke-miterlimit="22.9256" x1="20" y1="26.2" x2="20.2" y2="38.8"/>
		<path fill="none" stroke="#575756" stroke-width="0.5" stroke-miterlimit="22.9256" d="M21.6,23.8c-0.1,0-0.2,0-0.3,0
			c-0.2-0.1-0.2-0.5,0-0.8s0.6-0.5,0.8-0.4c0.1,0,0.1,0.1,0.1,0.2"/>
		<path fill="none" stroke="#575756" stroke-width="0.5" stroke-miterlimit="22.9256" d="M21.3,23.7c-0.2-0.1-0.2-0.5,0-0.8
			s0.6-0.5,0.8-0.4"/>
		<path fill="none" stroke="#575756" stroke-width="0.5" stroke-miterlimit="22.9256" d="M21.2,23.6l7.8,4.5
			c0.2,0.1,0.5-0.1,0.6-0.4c0.2-0.3,0.1-0.6-0.1-0.7l-7.7-4.4"/>
		
			<ellipse transform="matrix(0.4379 -0.899 0.899 0.4379 -8.1527 41.7596)" fill="none" stroke="#575756" stroke-width="0.5" stroke-miterlimit="22.9256" cx="29.3" cy="27.4" rx="0.6" ry="0.4"/>
		<path fill="none" stroke="#575756" stroke-width="0.5" stroke-miterlimit="22.9256" d="M18.7,33.4c0.1,0,0.2,0,0.3,0
			c0.2-0.1,0.2-0.5,0-0.8s-0.6-0.5-0.8-0.4c-0.1,0-0.1,0.1-0.1,0.2"/>
		<path fill="none" stroke="#575756" stroke-width="0.5" stroke-miterlimit="22.9256" d="M18.9,33.4c0.2-0.1,0.2-0.5,0-0.8
			s-0.6-0.5-0.8-0.4"/>
		<path fill="none" stroke="#575756" stroke-width="0.5" stroke-miterlimit="22.9256" d="M19,33.2l-7.8,4.4
			c-0.2,0.1-0.5-0.1-0.6-0.4c-0.2-0.3-0.1-0.6,0.1-0.7l7.7-4.4"/>
		<line fill="none" stroke="#575756" stroke-width="0.5" stroke-miterlimit="22.9256" x1="28.4" y1="27.8" x2="23.4" y2="30.7"/>
		
			<ellipse transform="matrix(0.899 -0.4379 0.4379 0.899 -15.1547 8.514)" fill="none" stroke="#575756" stroke-width="0.5" stroke-miterlimit="22.9256" cx="10.9" cy="37.1" rx="0.4" ry="0.6"/>
	</g>
</g>
<g id="osłony_zewnętrzne">
</g>
<g id="osłony_wewnętrzne">
</g>
<g id="interface">
</g>
<g id="kategorie">
</g>
</svg>
