<?xml version="1.0" encoding="utf-8"?>
<!-- Generator: Adobe Illustrator 19.2.1, SVG Export Plug-In . SVG Version: 6.00 Build 0)  -->
<svg version="1.1" id="Layer_1" xmlns="http://www.w3.org/2000/svg" xmlns:xlink="http://www.w3.org/1999/xlink" x="0px" y="0px"
	 width="40px" height="40px" viewBox="0 0 40 40" enable-background="new 0 0 40 40" xml:space="preserve">
<g id="inne">
</g>
<g id="parasole">
</g>
<g id="markizy_i_zadaszenia">
</g>
<g id="Layer_13">
</g>
<g id="Layer_12">
</g>
<g id="Layer_10">
</g>
<g id="Layer_11">
</g>
<g id="podstawy">
	<g>
		<rect x="0.5" y="0.5" fill="none" stroke="#575756" stroke-width="0.8028" stroke-miterlimit="22.926" width="39" height="39"/>
		<polygon fill="#FFFFFF" points="2.7,20.5 11.1,14 19.5,18.5 11.3,26.4 		"/>
		
			<polygon fill="none" stroke="#575756" stroke-width="0.4127" stroke-linecap="round" stroke-linejoin="round" stroke-miterlimit="22.926" points="
			2.7,20.5 11.1,14 19.5,18.5 11.3,26.4 		"/>
		<polygon fill="#FFFFFF" points="11.9,26.8 20.1,18.6 30.6,24.3 23.2,34.3 		"/>
		
			<polygon fill="none" stroke="#575756" stroke-width="0.4127" stroke-linecap="round" stroke-linejoin="round" stroke-miterlimit="22.926" points="
			11.9,26.8 20.1,18.6 30.6,24.3 23.2,34.3 		"/>
		<polygon fill="#FFFFFF" points="20.3,18.4 26.7,12.4 36.4,16.6 30.9,24 		"/>
		
			<polygon fill="none" stroke="#575756" stroke-width="0.4127" stroke-linecap="round" stroke-linejoin="round" stroke-miterlimit="22.926" points="
			20.3,18.4 26.7,12.4 36.4,16.6 30.9,24 		"/>
		<polygon fill="#FFFFFF" points="11.5,13.6 18.2,8.6 26.4,12.3 19.9,18.2 		"/>
		
			<polygon fill="none" stroke="#575756" stroke-width="0.4127" stroke-linecap="round" stroke-linejoin="round" stroke-miterlimit="22.926" points="
			11.5,13.6 18.2,8.6 26.4,12.3 19.9,18.2 		"/>
		<ellipse fill="#FFFFFF" cx="20" cy="10.2" rx="1.1" ry="0.7"/>
		
			<ellipse fill="none" stroke="#575756" stroke-width="0.4127" stroke-linecap="round" stroke-linejoin="round" stroke-miterlimit="22.926" cx="20" cy="10.2" rx="1.1" ry="0.7"/>
		<path fill="#FFFFFF" d="M20.9,17.9c0,0.3-0.4,0.6-0.9,0.6s-0.9-0.2-0.9-0.6l-0.3-7.6c0.1,0.3,0.5,0.6,1.1,0.6c0.5,0,1-0.3,1.1-0.6
			l0,0L20.9,17.9z"/>
		
			<path fill="none" stroke="#575756" stroke-width="0.4127" stroke-linecap="round" stroke-linejoin="round" stroke-miterlimit="22.926" d="
			M20.9,17.9c0,0.3-0.4,0.6-0.9,0.6s-0.9-0.2-0.9-0.6l-0.3-7.6c0.1,0.3,0.5,0.6,1.1,0.6c0.5,0,1-0.3,1.1-0.6l0,0L20.9,17.9z"/>
		<ellipse fill="#FFFFFF" cx="20" cy="10.2" rx="0.8" ry="0.5"/>
		
			<ellipse fill="none" stroke="#575756" stroke-width="0.4127" stroke-linecap="round" stroke-linejoin="round" stroke-miterlimit="22.926" cx="20" cy="10.2" rx="0.8" ry="0.5"/>
		<path fill="#FFFFFF" d="M18.9,17.3v1.4h2.4l-0.1-1.5H21v0.6c0,0.3-0.4,0.6-0.9,0.6s-0.9-0.2-0.9-0.6v-0.6L18.9,17.3z"/>
		
			<path fill="none" stroke="#575756" stroke-width="0.4127" stroke-linecap="round" stroke-linejoin="round" stroke-miterlimit="22.926" d="
			M18.9,17.3v1.4h2.4l-0.1-1.5H21v0.6c0,0.3-0.4,0.6-0.9,0.6s-0.9-0.2-0.9-0.6v-0.6L18.9,17.3z"/>
		<polygon fill="#FFFFFF" points="3.3,22.3 2.7,20.5 11.3,26.4 11.6,28 		"/>
		
			<polygon fill="none" stroke="#575756" stroke-width="0.4127" stroke-linecap="round" stroke-linejoin="round" stroke-miterlimit="22.926" points="
			3.3,22.3 2.7,20.5 11.3,26.4 11.6,28 		"/>
		<polygon fill="#FFFFFF" points="12.1,28.3 11.9,26.8 23.2,34.3 23.3,35.7 		"/>
		
			<polygon fill="none" stroke="#575756" stroke-width="0.4127" stroke-linecap="round" stroke-linejoin="round" stroke-miterlimit="22.926" points="
			12.1,28.3 11.9,26.8 23.2,34.3 23.3,35.7 		"/>
		<polygon fill="#FFFFFF" points="23.3,35.7 23.2,34.3 30.6,24.3 30.6,25.8 		"/>
		
			<polygon fill="none" stroke="#575756" stroke-width="0.4127" stroke-linecap="round" stroke-linejoin="round" stroke-miterlimit="22.926" points="
			23.3,35.7 23.2,34.3 30.6,24.3 30.6,25.8 		"/>
		<polygon fill="#FFFFFF" points="30.9,25.5 30.9,23.9 36.4,16.6 36,18.3 		"/>
		
			<polygon fill="none" stroke="#575756" stroke-width="0.4127" stroke-linecap="round" stroke-linejoin="round" stroke-miterlimit="22.926" points="
			30.9,25.5 30.9,23.9 36.4,16.6 36,18.3 		"/>
		<polygon fill="#FFFFFF" points="11.5,13.6 11.5,14.2 18.9,18.2 18.9,17.6 		"/>
		
			<polygon fill="none" stroke="#575756" stroke-width="0.4127" stroke-linecap="round" stroke-linejoin="round" stroke-miterlimit="22.926" points="
			11.5,13.6 11.5,14.2 18.9,18.2 18.9,17.6 		"/>
		<polygon fill="#FFFFFF" points="26.4,12.3 26.4,12.7 21.2,17.6 21.2,17.3 21,17.3 21,17.1 		"/>
		
			<polygon fill="none" stroke="#575756" stroke-width="0.4127" stroke-linecap="round" stroke-linejoin="round" stroke-miterlimit="22.926" points="
			26.4,12.3 26.4,12.7 21.2,17.6 21.2,17.3 21,17.3 21,17.1 		"/>
		<polygon fill="#FFFFFF" points="21.3,18.8 30.9,23.9 30.9,25.5 30.6,25.3 30.6,24.3 20.3,18.8 		"/>
		
			<polygon fill="none" stroke="#575756" stroke-width="0.4127" stroke-linecap="round" stroke-linejoin="round" stroke-miterlimit="22.926" points="
			21.3,18.8 30.9,23.9 30.9,25.5 30.6,25.3 30.6,24.3 20.3,18.8 		"/>
		<polygon fill="#FFFFFF" points="11.6,28 12,27.7 11.9,26.8 20,18.8 19.2,18.8 11.3,26.4 		"/>
		
			<polygon fill="none" stroke="#575756" stroke-width="0.4127" stroke-linecap="round" stroke-linejoin="round" stroke-miterlimit="22.926" points="
			11.6,28 12,27.7 11.9,26.8 20,18.8 19.2,18.8 11.3,26.4 		"/>
		<polygon fill="#FFFFFF" points="30.2,25.8 31.5,23.9 31.5,25 30.2,26.7 		"/>
		
			<polygon fill="none" stroke="#575756" stroke-width="0.2978" stroke-linecap="round" stroke-linejoin="round" stroke-miterlimit="22.926" points="
			30.2,25.8 31.5,23.9 31.5,25 30.2,26.7 		"/>
		<polygon fill="#FFFFFF" points="12.5,27.8 10.6,26.5 10.7,27.7 12.6,28.9 		"/>
		
			<polygon fill="none" stroke="#575756" stroke-width="0.2978" stroke-linecap="round" stroke-linejoin="round" stroke-miterlimit="22.926" points="
			12.5,27.8 10.6,26.5 10.7,27.7 12.6,28.9 		"/>
		
			<line fill="none" stroke="#575756" stroke-width="0.4127" stroke-linecap="round" stroke-linejoin="round" stroke-miterlimit="22.926" x1="5.3" y1="18.6" x2="25.4" y2="31.2"/>
		
			<line fill="none" stroke="#575756" stroke-width="0.4127" stroke-linecap="round" stroke-linejoin="round" stroke-miterlimit="22.926" x1="8.2" y1="16.2" x2="16.8" y2="21"/>
		
			<line fill="none" stroke="#575756" stroke-width="0.4127" stroke-linecap="round" stroke-linejoin="round" stroke-miterlimit="22.926" x1="17.6" y1="21.4" x2="28.1" y2="27.5"/>
		
			<line fill="none" stroke="#575756" stroke-width="0.4127" stroke-linecap="round" stroke-linejoin="round" stroke-miterlimit="22.926" x1="6.7" y1="23.2" x2="14.9" y2="16"/>
		
			<line fill="none" stroke="#575756" stroke-width="0.4127" stroke-linecap="round" stroke-linejoin="round" stroke-miterlimit="22.926" x1="15.3" y1="15.7" x2="18.9" y2="12.8"/>
		
			<line fill="none" stroke="#575756" stroke-width="0.4127" stroke-linecap="round" stroke-linejoin="round" stroke-miterlimit="22.926" x1="21" y1="11.5" x2="22.2" y2="10.4"/>
		
			<line fill="none" stroke="#575756" stroke-width="0.4127" stroke-linecap="round" stroke-linejoin="round" stroke-miterlimit="22.926" x1="17.2" y1="30.1" x2="24.8" y2="21.4"/>
		
			<line fill="none" stroke="#575756" stroke-width="0.4127" stroke-linecap="round" stroke-linejoin="round" stroke-miterlimit="22.926" x1="25.4" y1="21" x2="31.3" y2="14.4"/>
		
			<line fill="none" stroke="#575756" stroke-width="0.4127" stroke-linecap="round" stroke-linejoin="round" stroke-miterlimit="22.926" x1="22.8" y1="16" x2="32.9" y2="21"/>
		
			<line fill="none" stroke="#575756" stroke-width="0.4127" stroke-linecap="round" stroke-linejoin="round" stroke-miterlimit="22.926" x1="21" y1="15.2" x2="22.4" y2="15.8"/>
		
			<line fill="none" stroke="#575756" stroke-width="0.4127" stroke-linecap="round" stroke-linejoin="round" stroke-miterlimit="22.926" x1="14" y1="11.8" x2="19" y2="14.3"/>
		
			<line fill="none" stroke="#575756" stroke-width="0.4127" stroke-linecap="round" stroke-linejoin="round" stroke-miterlimit="22.926" x1="25" y1="14" x2="34.7" y2="18.5"/>
		
			<line fill="none" stroke="#575756" stroke-width="0.4127" stroke-linecap="round" stroke-linejoin="round" stroke-miterlimit="22.926" x1="21" y1="12.1" x2="24.7" y2="13.8"/>
		
			<line fill="none" stroke="#575756" stroke-width="0.4127" stroke-linecap="round" stroke-linejoin="round" stroke-miterlimit="22.926" x1="16.5" y1="10" x2="18.9" y2="11.2"/>
	</g>
</g>
<g id="osłony_zewnętrzne">
</g>
<g id="osłony_wewnętrzne">
</g>
<g id="interface">
</g>
<g id="kategorie">
</g>
</svg>
