<?xml version="1.0" encoding="utf-8"?>
<!-- Generator: Adobe Illustrator 19.2.1, SVG Export Plug-In . SVG Version: 6.00 Build 0)  -->
<svg version="1.1" id="Layer_1" xmlns="http://www.w3.org/2000/svg" xmlns:xlink="http://www.w3.org/1999/xlink" x="0px" y="0px"
	 width="40px" height="40px" viewBox="0 0 40 40" enable-background="new 0 0 40 40" xml:space="preserve">
<g id="inne">
</g>
<g id="parasole">
</g>
<g id="markizy_i_zadaszenia">
</g>
<g id="Layer_13">
</g>
<g id="Layer_12">
</g>
<g id="Layer_10">
</g>
<g id="Layer_11">
</g>
<g id="podstawy">
	<g>
		<rect x="0.5" y="0.5" fill="#FFFFFF" width="39" height="39"/>
		<rect x="0.5" y="0.5" fill="none" stroke="#575756" stroke-width="0.8028" stroke-miterlimit="22.926" width="39" height="39"/>
		<polygon fill="#FFFFFF" points="2.5,19.8 11,13.2 19.5,17.8 11.3,25.8 		"/>
		
			<polygon fill="none" stroke="#575756" stroke-width="0.4127" stroke-linecap="round" stroke-linejoin="round" stroke-miterlimit="22.926" points="
			2.5,19.8 11,13.2 19.5,17.8 11.3,25.8 		"/>
		<polygon fill="#FFFFFF" points="11.8,26.2 20.1,17.9 30.7,23.6 23.3,33.7 		"/>
		
			<polygon fill="none" stroke="#575756" stroke-width="0.4127" stroke-linecap="round" stroke-linejoin="round" stroke-miterlimit="22.926" points="
			11.8,26.2 20.1,17.9 30.7,23.6 23.3,33.7 		"/>
		<polygon fill="#FFFFFF" points="20.3,17.7 26.8,11.6 36.6,15.8 31,23.3 		"/>
		
			<polygon fill="none" stroke="#575756" stroke-width="0.4127" stroke-linecap="round" stroke-linejoin="round" stroke-miterlimit="22.926" points="
			20.3,17.7 26.8,11.6 36.6,15.8 31,23.3 		"/>
		<polygon fill="#FFFFFF" points="11.5,12.9 18.2,7.8 26.5,11.5 19.9,17.4 		"/>
		
			<polygon fill="none" stroke="#575756" stroke-width="0.4127" stroke-linecap="round" stroke-linejoin="round" stroke-miterlimit="22.926" points="
			11.5,12.9 18.2,7.8 26.5,11.5 19.9,17.4 		"/>
		<ellipse fill="#FFFFFF" cx="20" cy="9.4" rx="1.1" ry="0.7"/>
		
			<ellipse fill="none" stroke="#575756" stroke-width="0.4127" stroke-linecap="round" stroke-linejoin="round" stroke-miterlimit="22.926" cx="20" cy="9.4" rx="1.1" ry="0.7"/>
		<path fill="#FFFFFF" d="M21,17.2c0,0.3-0.4,0.6-0.9,0.6s-0.9-0.3-0.9-0.6l-0.3-7.7c0.1,0.3,0.5,0.6,1.1,0.6c0.5,0,1-0.3,1.1-0.6
			l0,0L21,17.2z"/>
		
			<path fill="none" stroke="#575756" stroke-width="0.4127" stroke-linecap="round" stroke-linejoin="round" stroke-miterlimit="22.926" d="
			M21,17.2c0,0.3-0.4,0.6-0.9,0.6s-0.9-0.3-0.9-0.6l-0.3-7.7c0.1,0.3,0.5,0.6,1.1,0.6c0.5,0,1-0.3,1.1-0.6l0,0L21,17.2z"/>
		<ellipse fill="#FFFFFF" cx="20" cy="9.4" rx="0.8" ry="0.5"/>
		
			<ellipse fill="none" stroke="#575756" stroke-width="0.4127" stroke-linecap="round" stroke-linejoin="round" stroke-miterlimit="22.926" cx="20" cy="9.4" rx="0.8" ry="0.5"/>
		<path fill="#FFFFFF" d="M18.9,16.6v1.5h2.4l-0.1-1.5H21v0.6c0,0.3-0.4,0.6-0.9,0.6s-0.9-0.3-0.9-0.6v-0.6H18.9z"/>
		
			<path fill="none" stroke="#575756" stroke-width="0.4127" stroke-linecap="round" stroke-linejoin="round" stroke-miterlimit="22.926" d="
			M18.9,16.6v1.5h2.4l-0.1-1.5H21v0.6c0,0.3-0.4,0.6-0.9,0.6s-0.9-0.3-0.9-0.6v-0.6H18.9z"/>
		<polygon fill="#FFFFFF" points="3.2,22 2.5,19.8 11.3,25.8 11.6,27.7 		"/>
		
			<polygon fill="none" stroke="#575756" stroke-width="0.4127" stroke-linecap="round" stroke-linejoin="round" stroke-miterlimit="22.926" points="
			3.2,22 2.5,19.8 11.3,25.8 11.6,27.7 		"/>
		<polygon fill="#FFFFFF" points="12.1,28.1 11.8,26.2 23.3,33.7 23.4,35.6 		"/>
		
			<polygon fill="none" stroke="#575756" stroke-width="0.4127" stroke-linecap="round" stroke-linejoin="round" stroke-miterlimit="22.926" points="
			12.1,28.1 11.8,26.2 23.3,33.7 23.4,35.6 		"/>
		<polygon fill="#FFFFFF" points="23.4,35.6 23.3,33.7 30.7,23.6 30.7,25.6 		"/>
		
			<polygon fill="none" stroke="#575756" stroke-width="0.4127" stroke-linecap="round" stroke-linejoin="round" stroke-miterlimit="22.926" points="
			23.4,35.6 23.3,33.7 30.7,23.6 30.7,25.6 		"/>
		<polygon fill="#FFFFFF" points="31.1,25.2 31,23.2 36.6,15.8 36.2,18 		"/>
		
			<polygon fill="none" stroke="#575756" stroke-width="0.4127" stroke-linecap="round" stroke-linejoin="round" stroke-miterlimit="22.926" points="
			31.1,25.2 31,23.2 36.6,15.8 36.2,18 		"/>
		<polygon fill="#FFFFFF" points="26.5,11.5 26.5,11.9 21.3,16.8 21.3,16.5 21,16.5 21,16.4 		"/>
		
			<polygon fill="none" stroke="#575756" stroke-width="0.4127" stroke-linecap="round" stroke-linejoin="round" stroke-miterlimit="22.926" points="
			26.5,11.5 26.5,11.9 21.3,16.8 21.3,16.5 21,16.5 21,16.4 		"/>
		<polygon fill="#FFFFFF" points="21.3,18 31,23.2 31.1,24.8 30.7,24.7 30.7,23.6 20.3,18 		"/>
		
			<polygon fill="none" stroke="#575756" stroke-width="0.4127" stroke-linecap="round" stroke-linejoin="round" stroke-miterlimit="22.926" points="
			21.3,18 31,23.2 31.1,24.8 30.7,24.7 30.7,23.6 20.3,18 		"/>
		<polygon fill="#FFFFFF" points="11.6,27.4 12,27.1 11.9,26.2 20,18 19.3,18 11.3,25.8 		"/>
		
			<polygon fill="none" stroke="#575756" stroke-width="0.4127" stroke-linecap="round" stroke-linejoin="round" stroke-miterlimit="22.926" points="
			11.6,27.4 12,27.1 11.9,26.2 20,18 19.3,18 11.3,25.8 		"/>
		<polygon fill="#FFFFFF" points="30.3,25.3 31.7,23.4 31.6,24.7 30.4,26.4 		"/>
		
			<polygon fill="none" stroke="#575756" stroke-width="0.4127" stroke-linecap="round" stroke-linejoin="round" stroke-miterlimit="22.926" points="
			30.3,25.3 31.7,23.4 31.6,24.7 30.4,26.4 		"/>
		
			<polyline fill="none" stroke="#575756" stroke-width="0.2978" stroke-linecap="round" stroke-linejoin="round" stroke-miterlimit="22.926" points="
			2.9,21 23.3,34.7 36.4,16.9 		"/>
		
			<line fill="none" stroke="#575756" stroke-width="0.4127" stroke-linecap="round" stroke-linejoin="round" stroke-miterlimit="22.926" x1="17.9" y1="16.9" x2="18.9" y2="17"/>
		<polygon fill="#FFFFFF" points="12.4,27.4 10.5,26.1 10.7,27.4 12.5,28.7 		"/>
		
			<polygon fill="none" stroke="#575756" stroke-width="0.4127" stroke-linecap="round" stroke-linejoin="round" stroke-miterlimit="22.926" points="
			12.4,27.4 10.5,26.1 10.7,27.4 12.5,28.7 		"/>
	</g>
</g>
<g id="osłony_zewnętrzne">
</g>
<g id="osłony_wewnętrzne">
</g>
<g id="interface">
</g>
<g id="kategorie">
</g>
</svg>
