<?xml version="1.0" encoding="utf-8"?>
<!-- Generator: Adobe Illustrator 19.2.1, SVG Export Plug-In . SVG Version: 6.00 Build 0)  -->
<svg version="1.1" id="Layer_1" xmlns="http://www.w3.org/2000/svg" xmlns:xlink="http://www.w3.org/1999/xlink" x="0px" y="0px"
	 width="40px" height="40px" viewBox="0 0 40 40" enable-background="new 0 0 40 40" xml:space="preserve">
<g id="inne">
</g>
<g id="parasole">
</g>
<g id="markizy_i_zadaszenia">
</g>
<g id="Layer_13">
</g>
<g id="Layer_12">
</g>
<g id="Layer_10">
</g>
<g id="Layer_11">
</g>
<g id="podstawy">
	<g>
		<rect x="0.5" y="0.5" fill="none" stroke="#575756" stroke-width="0.8028" stroke-miterlimit="22.926" width="39" height="39"/>
		<path fill="#FFFFFF" stroke="#575756" stroke-width="0.5698" stroke-miterlimit="10" d="M7.2,19.5c-0.8,0.7-0.9,1.4-1,1.8
			c-0.5,1.8,0.3,2.7,1,3.3c2.9,2.7,12.3,10.3,12.3,10.3s3.1,2.3,6,0.7s8.2-8.1,8.2-8.1s1.1-1.8,0.1-4c0,0-0.6-1.2-1.2-2"/>
		<path fill="#FFFFFF" stroke="#575756" stroke-width="0.5629" stroke-miterlimit="10" d="M11.7,16c0,0-3.7,2.4-4.5,3.3
			c-1.5,1.8,0,4,0.6,4.6C8.5,24.6,18.1,32,18.1,32s1.6,1.2,2.2,1.5c1.7,0.8,4.7,1.4,7.3-1s5.9-6.1,5.9-6.1s1.7-3.6-2.1-5.9
			s-7.9-5-10.8-6.4c-1.5-0.7-4-0.6-5.9,0.3S11.7,16,11.7,16z"/>
		<path fill="#FFFFFF" stroke="#575756" stroke-width="0.2849" stroke-miterlimit="10" d="M11.7,19.7l4.6,0.8c0.5,0.1,1-0.4,0.8-1
			l-0.9-2.2c-0.2-0.6-0.9-0.8-1.4-0.5L11.6,19C11.3,19.2,11.4,19.6,11.7,19.7z"/>
		<g>
			<polygon fill="#FFFFFF" points="13.2,18.9 12.9,5.8 14.6,6.5 16,5.9 16,18.5 14.8,19.6 			"/>
			<path fill="#575756" d="M13.1,6l1.6,0.7l1.2-0.5v12.3l-1.1,0.9l-1.4-0.6L13.1,6 M12.8,5.5v0.4L13,18.8V19l0.2,0.1l1.4,0.6
				l0.2,0.1l0.1-0.1l1.1-0.9l0.1-0.1v-0.1V6.2V5.7l-0.4,0.2l-1.1,0.5l-1.5-0.6L12.8,5.5L12.8,5.5z"/>
		</g>
		<polyline fill="#FFFFFF" stroke="#575756" stroke-width="0.2849" stroke-miterlimit="10" points="16.1,5.9 14.3,5.1 12.8,5.7 		
			"/>
		<line fill="none" stroke="#575756" stroke-width="0.2849" stroke-miterlimit="10" x1="14.7" y1="19.4" x2="14.6" y2="6.6"/>
		<ellipse fill="#575756" cx="16.3" cy="19.7" rx="0.3" ry="0.2"/>
		<ellipse fill="#575756" cx="12.3" cy="19.2" rx="0.3" ry="0.2"/>
		<path fill="#575756" d="M14.9,26.2c-0.1-0.1-0.2-0.1-0.4-0.1c-0.3,0-0.7,0.3-0.8,0.5c-0.1,0.1-0.2,0.3-0.1,0.5l0,0
			c0,0.1,0.1,0.2,0.2,0.3l2.4,2c0.2,0.2,0.6,0.3,0.9,0.2h0.1c0.4-0.1,0.7-0.4,0.8-0.8l0,0c0-0.3-0.1-0.6-0.3-0.7L14.9,26.2z"/>
		<path fill="#575756" d="M24,17.4c-0.5-0.1-1.6,0.7-0.9,1.1c0.7,0.5,2.7,1.6,2.7,1.6s0.5,0.3,0.8,0.2c0.5-0.1,0.8-0.7,0.5-1.1
			C26.8,18.9,24.9,17.6,24,17.4z"/>
	</g>
</g>
<g id="osłony_zewnętrzne">
</g>
<g id="osłony_wewnętrzne">
</g>
<g id="interface">
</g>
<g id="kategorie">
</g>
</svg>
