<?xml version="1.0" encoding="utf-8"?>
<!-- Generator: Adobe Illustrator 19.2.1, SVG Export Plug-In . SVG Version: 6.00 Build 0)  -->
<svg version="1.1" id="Layer_1" xmlns="http://www.w3.org/2000/svg" xmlns:xlink="http://www.w3.org/1999/xlink" x="0px" y="0px"
	 width="40px" height="40px" viewBox="0 0 40 40" enable-background="new 0 0 40 40" xml:space="preserve">
<g id="inne">
</g>
<g id="parasole">
</g>
<g id="markizy_i_zadaszenia">
</g>
<g id="Layer_13">
</g>
<g id="Layer_12">
</g>
<g id="Layer_10">
</g>
<g id="Layer_11">
</g>
<g id="podstawy">
	<g>
		<rect x="0.5" y="0.5" fill="none" stroke="#575756" stroke-width="0.8028" stroke-miterlimit="22.926" width="39" height="39"/>
		<polygon fill="#FFFFFF" points="2.7,20.5 11.1,14 19.5,18.5 11.3,26.4 		"/>
		
			<polygon fill="none" stroke="#575756" stroke-width="0.4127" stroke-linecap="round" stroke-linejoin="round" stroke-miterlimit="22.926" points="
			2.7,20.5 11.1,14 19.5,18.5 11.3,26.4 		"/>
		<polygon fill="#FFFFFF" points="11.9,26.8 20.1,18.6 30.6,24.3 23.2,34.3 		"/>
		
			<polygon fill="none" stroke="#575756" stroke-width="0.4127" stroke-linecap="round" stroke-linejoin="round" stroke-miterlimit="22.926" points="
			11.9,26.8 20.1,18.6 30.6,24.3 23.2,34.3 		"/>
		<polygon fill="#FFFFFF" points="20.3,18.4 26.7,12.4 36.4,16.6 30.9,24 		"/>
		
			<polygon fill="none" stroke="#575756" stroke-width="0.4127" stroke-linecap="round" stroke-linejoin="round" stroke-miterlimit="22.926" points="
			20.3,18.4 26.7,12.4 36.4,16.6 30.9,24 		"/>
		<polygon fill="#FFFFFF" points="11.5,13.6 18.2,8.6 26.4,12.3 19.9,18.2 		"/>
		
			<polygon fill="none" stroke="#575756" stroke-width="0.4127" stroke-linecap="round" stroke-linejoin="round" stroke-miterlimit="22.926" points="
			11.5,13.6 18.2,8.6 26.4,12.3 19.9,18.2 		"/>
		<polygon fill="#FFFFFF" points="3.3,22.3 2.7,20.5 11.3,26.4 11.6,28 		"/>
		
			<polygon fill="none" stroke="#575756" stroke-width="0.4127" stroke-linecap="round" stroke-linejoin="round" stroke-miterlimit="22.926" points="
			3.3,22.3 2.7,20.5 11.3,26.4 11.6,28 		"/>
		<polygon fill="#FFFFFF" points="12.1,28.3 11.9,26.8 23.2,34.3 23.3,35.7 		"/>
		
			<polygon fill="none" stroke="#575756" stroke-width="0.4127" stroke-linecap="round" stroke-linejoin="round" stroke-miterlimit="22.926" points="
			12.1,28.3 11.9,26.8 23.2,34.3 23.3,35.7 		"/>
		<polygon fill="#FFFFFF" points="23.3,35.7 23.2,34.3 30.6,24.3 30.6,25.8 		"/>
		
			<polygon fill="none" stroke="#575756" stroke-width="0.4127" stroke-linecap="round" stroke-linejoin="round" stroke-miterlimit="22.926" points="
			23.3,35.7 23.2,34.3 30.6,24.3 30.6,25.8 		"/>
		<polygon fill="#FFFFFF" points="30.9,25.5 30.9,23.9 36.4,16.6 36,18.3 		"/>
		
			<polygon fill="none" stroke="#575756" stroke-width="0.4127" stroke-linecap="round" stroke-linejoin="round" stroke-miterlimit="22.926" points="
			30.9,25.5 30.9,23.9 36.4,16.6 36,18.3 		"/>
		<polygon fill="#FFFFFF" points="11.5,13.6 11.5,14.2 18.9,18.2 18.9,17.6 		"/>
		
			<polygon fill="none" stroke="#575756" stroke-width="0.4127" stroke-linecap="round" stroke-linejoin="round" stroke-miterlimit="22.926" points="
			11.5,13.6 11.5,14.2 18.9,18.2 18.9,17.6 		"/>
		<polygon fill="#FFFFFF" points="26.4,12.3 26.4,12.7 21.2,17.6 21.2,17.3 21,17.3 21,17.1 		"/>
		
			<polygon fill="none" stroke="#575756" stroke-width="0.4127" stroke-linecap="round" stroke-linejoin="round" stroke-miterlimit="22.926" points="
			26.4,12.3 26.4,12.7 21.2,17.6 21.2,17.3 21,17.3 21,17.1 		"/>
		<polygon fill="#FFFFFF" points="21.3,18.8 30.9,23.9 30.9,25.5 30.6,25.3 30.6,24.3 20.3,18.8 		"/>
		
			<polygon fill="none" stroke="#575756" stroke-width="0.4127" stroke-linecap="round" stroke-linejoin="round" stroke-miterlimit="22.926" points="
			21.3,18.8 30.9,23.9 30.9,25.5 30.6,25.3 30.6,24.3 20.3,18.8 		"/>
		<polygon fill="#FFFFFF" points="11.6,28 12,27.7 11.9,26.8 20,18.8 19.2,18.8 11.3,26.4 		"/>
		
			<polygon fill="none" stroke="#575756" stroke-width="0.4127" stroke-linecap="round" stroke-linejoin="round" stroke-miterlimit="22.926" points="
			11.6,28 12,27.7 11.9,26.8 20,18.8 19.2,18.8 11.3,26.4 		"/>
		<polygon fill="#FFFFFF" points="30.2,25.8 31.5,23.9 31.5,25 30.2,26.7 		"/>
		
			<polygon fill="none" stroke="#575756" stroke-width="0.2978" stroke-linecap="round" stroke-linejoin="round" stroke-miterlimit="22.926" points="
			30.2,25.8 31.5,23.9 31.5,25 30.2,26.7 		"/>
		<polygon fill="#FFFFFF" points="12.5,27.8 10.6,26.5 10.7,27.7 12.6,28.9 		"/>
		
			<polygon fill="none" stroke="#575756" stroke-width="0.2978" stroke-linecap="round" stroke-linejoin="round" stroke-miterlimit="22.926" points="
			12.5,27.8 10.6,26.5 10.7,27.7 12.6,28.9 		"/>
	</g>
	<g>
		<path fill="#FFFFFF" stroke="#1D1D1B" stroke-width="0.2849" stroke-miterlimit="10" d="M12.2,18l4.6,0.8c0.5,0.1,1-0.4,0.8-1
			l-0.9-2.2c-0.2-0.6-0.9-0.8-1.4-0.5l-3.2,2.2C11.8,17.5,11.9,17.9,12.2,18z"/>
		<g>
			<polygon fill="#FFFFFF" points="13.7,17.2 13.4,4.1 15.1,4.8 16.5,4.2 16.5,16.8 15.3,17.8 			"/>
			<path fill="#1D1D1B" d="M13.6,4.3L15.1,5l1.2-0.5v12.3l-1.1,0.9l-1.4-0.6L13.6,4.3 M13.3,3.8v0.4L13.5,17v0.2l0.2,0.1l1.4,0.6
				l0.2,0.1l0.1-0.1l1.1-0.9l0.1-0.1v-0.1V4.5V4l-0.4,0.2l-1.1,0.5L13.7,4L13.3,3.8L13.3,3.8z"/>
		</g>
		<polyline fill="#FFFFFF" stroke="#1D1D1B" stroke-width="0.2849" stroke-miterlimit="10" points="16.6,4.2 14.8,3.4 13.3,4 		"/>
		<line fill="none" stroke="#1D1D1B" stroke-width="0.2849" stroke-miterlimit="10" x1="15.2" y1="17.6" x2="15.1" y2="4.9"/>
		<ellipse fill="#1D1D1B" cx="16.8" cy="18" rx="0.3" ry="0.2"/>
		<ellipse fill="#1D1D1B" cx="12.8" cy="17.5" rx="0.3" ry="0.2"/>
	</g>
</g>
<g id="osłony_zewnętrzne">
</g>
<g id="osłony_wewnętrzne">
</g>
<g id="interface">
</g>
<g id="kategorie">
</g>
</svg>
