<?xml version="1.0" encoding="utf-8"?>
<!-- Generator: Adobe Illustrator 19.2.1, SVG Export Plug-In . SVG Version: 6.00 Build 0)  -->
<svg version="1.1" id="Layer_1" xmlns="http://www.w3.org/2000/svg" xmlns:xlink="http://www.w3.org/1999/xlink" x="0px" y="0px"
	 width="40px" height="40px" viewBox="0 0 40 40" enable-background="new 0 0 40 40" xml:space="preserve">
<g id="inne">
</g>
<g id="parasole">
</g>
<g id="markizy_i_zadaszenia">
</g>
<g id="Layer_13">
</g>
<g id="Layer_12">
</g>
<g id="Layer_10">
</g>
<g id="Layer_11">
</g>
<g id="podstawy">
	<g>
		<polygon fill="#FFFFFF" points="2.9,20.4 11.4,13.8 19.9,18.4 11.6,26.4 		"/>
		
			<polygon fill="none" stroke="#C6C6C5" stroke-width="0.4127" stroke-linecap="round" stroke-linejoin="round" stroke-miterlimit="22.926" points="
			2.9,20.4 11.4,13.8 19.9,18.4 11.6,26.4 		"/>
		<polygon fill="#FFFFFF" points="12.2,26.8 20.5,18.5 31.2,24.2 23.7,34.3 		"/>
		
			<polygon fill="none" stroke="#C6C6C5" stroke-width="0.4127" stroke-linecap="round" stroke-linejoin="round" stroke-miterlimit="22.926" points="
			12.2,26.8 20.5,18.5 31.2,24.2 23.7,34.3 		"/>
		<polygon fill="#FFFFFF" points="20.7,18.3 27.3,12.2 37,16.4 31.5,23.9 		"/>
		
			<polygon fill="none" stroke="#C6C6C5" stroke-width="0.4127" stroke-linecap="round" stroke-linejoin="round" stroke-miterlimit="22.926" points="
			20.7,18.3 27.3,12.2 37,16.4 31.5,23.9 		"/>
		<polygon fill="#FFFFFF" points="11.8,13.5 18.6,8.3 26.9,12 20.3,18 		"/>
		
			<polygon fill="none" stroke="#C6C6C5" stroke-width="0.4127" stroke-linecap="round" stroke-linejoin="round" stroke-miterlimit="22.926" points="
			11.8,13.5 18.6,8.3 26.9,12 20.3,18 		"/>
		<ellipse fill="#FFFFFF" cx="20.4" cy="10" rx="1.1" ry="0.7"/>
		
			<ellipse fill="none" stroke="#C6C6C5" stroke-width="0.4127" stroke-linecap="round" stroke-linejoin="round" stroke-miterlimit="22.926" cx="20.4" cy="10" rx="1.1" ry="0.7"/>
		<path fill="#FFFFFF" d="M21.4,17.7c0,0.3-0.4,0.6-0.9,0.6s-0.9-0.3-0.9-0.6L19.3,10c0.1,0.3,0.5,0.6,1.1,0.6c0.5,0,1-0.3,1.1-0.6
			l0,0L21.4,17.7z"/>
		
			<path fill="none" stroke="#C6C6C5" stroke-width="0.4127" stroke-linecap="round" stroke-linejoin="round" stroke-miterlimit="22.926" d="
			M21.4,17.7c0,0.3-0.4,0.6-0.9,0.6s-0.9-0.3-0.9-0.6L19.3,10c0.1,0.3,0.5,0.6,1.1,0.6c0.5,0,1-0.3,1.1-0.6l0,0L21.4,17.7z"/>
		<ellipse fill="#FFFFFF" cx="20.4" cy="10" rx="0.8" ry="0.5"/>
		
			<ellipse fill="none" stroke="#C6C6C5" stroke-width="0.4127" stroke-linecap="round" stroke-linejoin="round" stroke-miterlimit="22.926" cx="20.4" cy="10" rx="0.8" ry="0.5"/>
		<polygon fill="#FFFFFF" points="3.5,22.2 2.9,20.4 11.6,26.4 12,28 		"/>
		
			<polygon fill="none" stroke="#C6C6C5" stroke-width="0.4127" stroke-linecap="round" stroke-linejoin="round" stroke-miterlimit="22.926" points="
			3.5,22.2 2.9,20.4 11.6,26.4 12,28 		"/>
		<polygon fill="#FFFFFF" points="12.4,28.2 12.2,26.8 23.7,34.3 23.8,35.8 		"/>
		
			<polygon fill="none" stroke="#C6C6C5" stroke-width="0.4127" stroke-linecap="round" stroke-linejoin="round" stroke-miterlimit="22.926" points="
			12.4,28.2 12.2,26.8 23.7,34.3 23.8,35.8 		"/>
		<polygon fill="#FFFFFF" points="23.8,35.8 23.7,34.3 31.2,24.2 31.1,25.7 		"/>
		
			<polygon fill="none" stroke="#C6C6C5" stroke-width="0.4127" stroke-linecap="round" stroke-linejoin="round" stroke-miterlimit="22.926" points="
			23.8,35.8 23.7,34.3 31.2,24.2 31.1,25.7 		"/>
		<polygon fill="#FFFFFF" points="31.5,25.4 31.5,23.8 37,16.4 36.7,18.2 		"/>
		
			<polygon fill="none" stroke="#C6C6C5" stroke-width="0.4127" stroke-linecap="round" stroke-linejoin="round" stroke-miterlimit="22.926" points="
			31.5,25.4 31.5,23.8 37,16.4 36.7,18.2 		"/>
		<polygon fill="#FFFFFF" points="21.7,18.6 31.5,23.8 31.5,25.4 31.1,25.3 31.1,24.2 20.7,18.6 		"/>
		
			<polygon fill="none" stroke="#C6C6C5" stroke-width="0.4127" stroke-linecap="round" stroke-linejoin="round" stroke-miterlimit="22.926" points="
			21.7,18.6 31.5,23.8 31.5,25.4 31.1,25.3 31.1,24.2 20.7,18.6 		"/>
		<polygon fill="#FFFFFF" points="12,28 12.3,27.7 12.2,26.8 20.4,18.6 19.6,18.6 11.6,26.4 		"/>
		
			<polygon fill="none" stroke="#C6C6C5" stroke-width="0.4127" stroke-linecap="round" stroke-linejoin="round" stroke-miterlimit="22.926" points="
			12,28 12.3,27.7 12.2,26.8 20.4,18.6 19.6,18.6 11.6,26.4 		"/>
		<polygon fill="#FFFFFF" points="30.7,25.7 32.1,23.8 32.1,24.9 30.8,26.6 		"/>
		
			<polygon fill="none" stroke="#C6C6C5" stroke-width="0.4127" stroke-linecap="round" stroke-linejoin="round" stroke-miterlimit="22.926" points="
			30.7,25.7 32.1,23.8 32.1,24.9 30.8,26.6 		"/>
		<polygon fill="#FFFFFF" points="12.8,27.8 10.9,26.5 11,27.6 12.9,28.9 		"/>
		
			<polygon fill="none" stroke="#C6C6C5" stroke-width="0.4127" stroke-linecap="round" stroke-linejoin="round" stroke-miterlimit="22.926" points="
			12.8,27.8 10.9,26.5 11,27.6 12.9,28.9 		"/>
		
			<polyline fill="none" stroke="#C6C6C5" stroke-width="0.1748" stroke-linecap="round" stroke-linejoin="round" stroke-miterlimit="22.926" points="
			3.2,21.4 23.7,35.1 36.9,17.3 		"/>
		
			<line fill="none" stroke="#C6C6C5" stroke-width="0.4127" stroke-linecap="round" stroke-linejoin="round" stroke-miterlimit="22.926" x1="18.2" y1="17.5" x2="19.3" y2="17.6"/>
		
			<line fill="none" stroke="#C6C6C5" stroke-width="0.4127" stroke-linecap="round" stroke-linejoin="round" stroke-miterlimit="22.926" x1="21.7" y1="17.1" x2="22.6" y2="16.4"/>
		<path fill="#FFFFFF" d="M21.4,16.4c0.8,0.2,1.3,0.8,1.3,1.4c0,0.9-1,1.6-2.3,1.6s-2.3-0.7-2.3-1.6c0-0.6,0.6-1.2,1.3-1.4v1.4
			c0,0.3,0.4,0.6,0.9,0.6s0.9-0.3,0.9-0.6L21.4,16.4z"/>
		
			<path fill="none" stroke="#C6C6C5" stroke-width="0.4127" stroke-linecap="round" stroke-linejoin="round" stroke-miterlimit="22.926" d="
			M21.4,16.4c0.8,0.2,1.3,0.8,1.3,1.4c0,0.9-1,1.6-2.3,1.6s-2.3-0.7-2.3-1.6c0-0.6,0.6-1.2,1.3-1.4v1.4c0,0.3,0.4,0.6,0.9,0.6
			s0.9-0.3,0.9-0.6L21.4,16.4z"/>
		<rect x="1" fill="#FFFFFF" width="39" height="39"/>
		<rect x="0.5" y="0.5" fill="none" stroke="#575756" stroke-width="0.8028" stroke-miterlimit="22.926" width="39" height="39"/>
		<polygon fill="#FFFFFF" points="3.3,18.8 11.6,12.3 19.9,16.8 11.9,24.7 		"/>
		
			<polygon fill="none" stroke="#575756" stroke-width="0.2978" stroke-linecap="round" stroke-linejoin="round" stroke-miterlimit="22.926" points="
			3.3,18.8 11.6,12.3 19.9,16.8 11.9,24.7 		"/>
		<polygon fill="#FFFFFF" points="12.4,25.1 20.6,17 31,22.6 23.6,32.5 		"/>
		
			<polygon fill="none" stroke="#B1B1B1" stroke-width="0.2978" stroke-linecap="round" stroke-linejoin="round" stroke-miterlimit="22.926" points="
			12.4,25.1 20.6,17 31,22.6 23.6,32.5 		"/>
		<polygon fill="#FFFFFF" points="20.8,16.8 27.2,10.8 36.8,14.9 31.3,22.3 		"/>
		
			<polygon fill="none" stroke="#575756" stroke-width="0.2978" stroke-linecap="round" stroke-linejoin="round" stroke-miterlimit="22.926" points="
			20.8,16.8 27.2,10.8 36.8,14.9 31.3,22.3 		"/>
		<polygon fill="#FFFFFF" points="11.9,12.1 18.5,7 26.7,10.6 20.3,16.5 		"/>
		
			<polygon fill="none" stroke="#575756" stroke-width="0.2978" stroke-linecap="round" stroke-linejoin="round" stroke-miterlimit="22.926" points="
			12,12.1 18.7,7 26.8,10.6 20.4,16.5 		"/>
		<ellipse fill="#FFFFFF" cx="20.4" cy="8.6" rx="1.1" ry="0.7"/>
		
			<ellipse fill="none" stroke="#575756" stroke-width="0.2978" stroke-linecap="round" stroke-linejoin="round" stroke-miterlimit="22.926" cx="20.4" cy="8.6" rx="1.1" ry="0.7"/>
		<path fill="#FFFFFF" d="M21.4,16.2c0,0.3-0.4,0.6-0.9,0.6s-0.9-0.2-0.9-0.6l-0.3-7.5c0.1,0.3,0.5,0.6,1,0.6s1-0.3,1-0.6l0,0
			L21.4,16.2z"/>
		
			<path fill="none" stroke="#575756" stroke-width="0.2978" stroke-linecap="round" stroke-linejoin="round" stroke-miterlimit="22.926" d="
			M21.4,16.2c0,0.3-0.4,0.6-0.9,0.6s-0.9-0.2-0.9-0.6l-0.3-7.5c0.1,0.3,0.5,0.6,1,0.6s1-0.3,1-0.6l0,0L21.4,16.2z"/>
		<ellipse fill="#FFFFFF" cx="20.4" cy="8.6" rx="0.8" ry="0.5"/>
		
			<ellipse fill="none" stroke="#575756" stroke-width="0.2978" stroke-linecap="round" stroke-linejoin="round" stroke-miterlimit="22.926" cx="20.4" cy="8.6" rx="0.8" ry="0.5"/>
		<path fill="#FFFFFF" d="M19.4,15.6V17h2.4l-0.1-1.5h-0.2v0.6c0,0.3-0.4,0.6-0.9,0.6s-0.9-0.2-0.9-0.6v-0.6L19.4,15.6z"/>
		
			<path fill="none" stroke="#575756" stroke-width="0.2978" stroke-linecap="round" stroke-linejoin="round" stroke-miterlimit="22.926" d="
			M19.4,15.6V17h2.4l-0.1-1.5h-0.2v0.6c0,0.3-0.4,0.6-0.9,0.6s-0.9-0.2-0.9-0.6v-0.6L19.4,15.6z"/>
		<polygon fill="#FFFFFF" points="3.8,20.7 3.3,18.8 11.9,24.7 12.1,26.4 		"/>
		
			<polygon fill="none" stroke="#575756" stroke-width="0.2978" stroke-linecap="round" stroke-linejoin="round" stroke-miterlimit="22.926" points="
			3.8,20.7 3.3,18.8 11.9,24.7 12.1,26.4 		"/>
		<polygon fill="#FFFFFF" points="12.6,26.8 12.4,25.1 23.6,32.5 23.8,34.4 		"/>
		
			<polygon fill="none" stroke="#575756" stroke-width="0.2978" stroke-linecap="round" stroke-linejoin="round" stroke-miterlimit="22.926" points="
			12.6,26.8 12.4,25.1 23.6,32.5 23.8,34.4 		"/>
		<polygon fill="#FFFFFF" points="23.8,34.4 23.6,32.5 31,22.6 31,24.4 		"/>
		
			<polygon fill="none" stroke="#575756" stroke-width="0.2978" stroke-linecap="round" stroke-linejoin="round" stroke-miterlimit="22.926" points="
			23.8,34.4 23.6,32.5 31,22.6 31,24.4 		"/>
		<polygon fill="#FFFFFF" points="31.3,23.9 31.3,22.1 36.8,14.9 36.4,16.9 		"/>
		
			<polygon fill="none" stroke="#575756" stroke-width="0.2978" stroke-linecap="round" stroke-linejoin="round" stroke-miterlimit="22.926" points="
			31.3,23.9 31.3,22.1 36.8,14.9 36.4,16.9 		"/>
		<polygon fill="#FFFFFF" points="12,12.1 12,12.5 19.3,16.5 19.3,15.9 		"/>
		
			<polygon fill="none" stroke="#575756" stroke-width="0.2978" stroke-linecap="round" stroke-linejoin="round" stroke-miterlimit="22.926" points="
			12,12.1 12,12.5 19.3,16.5 19.3,15.9 		"/>
		<polygon fill="#FFFFFF" points="26.8,10.6 26.8,11.1 21.7,15.9 21.7,15.6 21.4,15.6 21.4,15.5 		"/>
		
			<polygon fill="none" stroke="#575756" stroke-width="0.2978" stroke-linecap="round" stroke-linejoin="round" stroke-miterlimit="22.926" points="
			26.8,10.6 26.8,11.1 21.7,15.9 21.7,15.6 21.4,15.6 21.4,15.5 		"/>
		<polygon fill="#FFFFFF" points="21.7,17.1 31.3,22.1 31.3,23.7 31,23.6 31,22.6 20.7,17.1 		"/>
		
			<polygon fill="none" stroke="#575756" stroke-width="0.2978" stroke-linecap="round" stroke-linejoin="round" stroke-miterlimit="22.926" points="
			21.7,17.1 31.3,22.1 31.3,23.7 31,23.6 31,22.6 20.7,17.1 		"/>
		<polygon fill="#FFFFFF" points="12.2,26.3 12.6,25.9 12.4,25.1 20.5,17.1 19.7,17.1 11.9,24.7 		"/>
		
			<polygon fill="none" stroke="#575756" stroke-width="0.2978" stroke-linecap="round" stroke-linejoin="round" stroke-miterlimit="22.926" points="
			12.2,26.3 12.6,25.9 12.4,25.1 20.5,17.1 19.7,17.1 11.9,24.7 		"/>
		<polygon fill="#FFFFFF" points="30.6,24.3 31.9,22.4 31.9,23.6 30.7,25.3 		"/>
		
			<polygon fill="none" stroke="#575756" stroke-width="0.2978" stroke-linecap="round" stroke-linejoin="round" stroke-miterlimit="22.926" points="
			30.6,24.3 31.9,22.4 31.9,23.6 30.7,25.3 		"/>
		
			<line fill="none" stroke="#575756" stroke-width="0.2978" stroke-linecap="round" stroke-linejoin="round" stroke-miterlimit="22.926" x1="18.3" y1="16" x2="19.3" y2="16.1"/>
		
			<line fill="none" stroke="#575756" stroke-width="0.2978" stroke-linecap="round" stroke-linejoin="round" stroke-miterlimit="22.926" x1="21.7" y1="15.6" x2="22.7" y2="14.9"/>
		<polygon fill="#FFFFFF" points="13,26.3 11.1,25 11.3,26.3 13.1,27.5 		"/>
		
			<polygon fill="none" stroke="#575756" stroke-width="0.2978" stroke-linecap="round" stroke-linejoin="round" stroke-miterlimit="22.926" points="
			13,26.3 11.1,25 11.3,26.3 13.1,27.5 		"/>
	</g>
</g>
<g id="osłony_zewnętrzne">
</g>
<g id="osłony_wewnętrzne">
</g>
<g id="interface">
</g>
<g id="kategorie">
</g>
</svg>
