<?xml version="1.0" encoding="utf-8"?>
<!-- Generator: Adobe Illustrator 19.2.1, SVG Export Plug-In . SVG Version: 6.00 Build 0)  -->
<svg version="1.1" id="Layer_1" xmlns="http://www.w3.org/2000/svg" xmlns:xlink="http://www.w3.org/1999/xlink" x="0px" y="0px"
	 width="40px" height="40px" viewBox="0 0 40 40" enable-background="new 0 0 40 40" xml:space="preserve">
<g id="inne">
</g>
<g id="parasole">
</g>
<g id="markizy_i_zadaszenia">
</g>
<g id="Layer_13">
</g>
<g id="Layer_12">
</g>
<g id="Layer_10">
</g>
<g id="Layer_11">
</g>
<g id="podstawy">
	<g>
		<rect x="0.5" y="0.5" fill="#FFFFFF" width="39" height="39"/>
		<rect x="0.5" y="0.5" fill="none" stroke="#575756" stroke-width="0.8028" stroke-miterlimit="22.926" width="39" height="39"/>
		<ellipse fill="#FFFFFF" cx="20.1" cy="21.8" rx="16.1" ry="13.7"/>
		
			<ellipse fill="none" stroke="#575756" stroke-width="0.4127" stroke-linecap="round" stroke-linejoin="round" stroke-miterlimit="22.926" cx="20.1" cy="21.8" rx="16.1" ry="13.7"/>
		
			<ellipse fill="none" stroke="#575756" stroke-width="0.4127" stroke-linecap="round" stroke-linejoin="round" stroke-miterlimit="22.926" cx="20" cy="20.4" rx="15.5" ry="12.4"/>
		<path fill="#FFFFFF" d="M25.2,22c-0.2,0.4-0.4,0.8-0.5,1.2c-1.7,0-3.3,0-5,0s-3.3,0-4.9,0c-0.1-0.4-0.3-0.8-0.4-1.2
			c1-1.4,1.9-2.6,2.8-3.8c0.8-1.1,1.6-2.1,2.3-3.1c0.4,0,0.7,0,1.1,0c0.7,1,1.4,2,2.1,3.1C23.4,19.3,24.2,20.6,25.2,22z"/>
		<path fill="none" stroke="#575756" stroke-width="0.4047" stroke-miterlimit="22.926" d="M25.2,22c-0.2,0.4-0.4,0.8-0.5,1.2
			c-1.7,0-3.3,0-5,0s-3.3,0-4.9,0c-0.1-0.4-0.3-0.8-0.4-1.2c1-1.4,1.9-2.6,2.8-3.8c0.8-1.1,1.6-2.1,2.3-3.1c0.4,0,0.7,0,1.1,0
			c0.7,1,1.4,2,2.1,3.1C23.4,19.3,24.2,20.6,25.2,22z"/>
		<path fill="#FFFFFF" d="M16.1,21.9c0.1-0.6-0.8-0.6-0.9,0C15,22.6,16,22.6,16.1,21.9L16.1,21.9z"/>
		<path fill="none" stroke="#575756" stroke-width="0.1748" stroke-miterlimit="22.926" d="M16.1,21.9c0.1-0.6-0.8-0.6-0.9,0
			C15,22.6,16,22.6,16.1,21.9L16.1,21.9z"/>
		<path fill="#FFFFFF" d="M20.3,15.9c0-0.4-0.8-0.4-0.8,0C19.5,16.4,20.3,16.3,20.3,15.9L20.3,15.9z"/>
		<path fill="none" stroke="#575756" stroke-width="0.1748" stroke-miterlimit="22.926" d="M20.3,15.9c0-0.4-0.8-0.4-0.8,0
			C19.5,16.4,20.3,16.3,20.3,15.9L20.3,15.9z"/>
		<path fill="#FFFFFF" d="M24.3,22c-0.1-0.6-1-0.7-1,0C23.4,22.7,24.4,22.7,24.3,22L24.3,22z"/>
		<path fill="none" stroke="#575756" stroke-width="0.1748" stroke-miterlimit="22.926" d="M24.3,22c-0.1-0.6-1-0.7-1,0
			C23.4,22.7,24.4,22.7,24.3,22L24.3,22z"/>
		<ellipse fill="#FFFFFF" cx="19.7" cy="7.2" rx="1.8" ry="1.2"/>
		
			<ellipse fill="none" stroke="#575756" stroke-width="0.4127" stroke-linecap="round" stroke-linejoin="round" stroke-miterlimit="22.926" cx="19.7" cy="7.2" rx="1.8" ry="1.2"/>
		<path fill="#FFFFFF" d="M21.4,20.5c0,0.5-0.7,1-1.5,1s-1.5-0.4-1.5-1L17.9,7.4c0.1,0.6,0.9,1,1.8,1s1.7-0.4,1.8-1l0,0L21.4,20.5z"
			/>
		
			<path fill="none" stroke="#575756" stroke-width="0.4127" stroke-linecap="round" stroke-linejoin="round" stroke-miterlimit="22.926" d="
			M21.4,20.5c0,0.5-0.7,1-1.5,1s-1.5-0.4-1.5-1L17.9,7.4c0.1,0.6,0.9,1,1.8,1s1.7-0.4,1.8-1l0,0L21.4,20.5z"/>
		<ellipse fill="#FFFFFF" cx="19.7" cy="7.2" rx="1.4" ry="0.8"/>
		
			<ellipse fill="none" stroke="#575756" stroke-width="0.4127" stroke-linecap="round" stroke-linejoin="round" stroke-miterlimit="22.926" cx="19.7" cy="7.2" rx="1.4" ry="0.8"/>
	</g>
</g>
<g id="osłony_zewnętrzne">
</g>
<g id="osłony_wewnętrzne">
</g>
<g id="interface">
</g>
<g id="kategorie">
</g>
</svg>
