<?xml version="1.0" encoding="utf-8"?>
<!-- Generator: Adobe Illustrator 19.1.0, SVG Export Plug-In . SVG Version: 6.00 Build 0)  -->
<svg version="1.1" xmlns="http://www.w3.org/2000/svg" xmlns:xlink="http://www.w3.org/1999/xlink" x="0px" y="0px"
	 viewBox="0 0 381 229" style="enable-background:new 0 0 381 229;" xml:space="preserve">
<style type="text/css">
	.st0{fill:none;stroke:#E30613;stroke-width:2;stroke-linecap:round;stroke-miterlimit:10;}
	.st1{fill:none;stroke:#E30613;stroke-width:2;stroke-miterlimit:10;}
	.st2{fill:none;stroke:#000000;stroke-width:2;stroke-linecap:round;stroke-miterlimit:10;}
</style>
<g id="Layer_1">
</g>
<g id="Layer_2">
	<g>
		<g>
			<line class="st0" x1="98.3" y1="79.5" x2="98.3" y2="213.5"/>
			<path class="st0" d="M137.5,228H66.2c-1.7,0-3-1.4-3-3v-5c0-1.7,1.4-5,3-5h71.3c1.6,0,3,3.4,3,5v5
				C140.5,226.6,139.2,228,137.5,228z"/>
			<g>
				<path class="st1" d="M199.1,72.2v4.1c0,3.2-4.5,6-11.4,6c-6.8,0-11.8-2.9-11.8-5.8l0,0c0,3-5,5.8-11.7,5.8c-6.7,0-12-2.6-12-5.8
					l0,0c0,3.2-5.5,6.2-12.2,6.2c-6.8,0-12.2-2.5-12.2-5.3l0,0c0,2.1-6.1,5.3-13,5.3s-13.5-3.1-13.5-6.3"/>
				<path class="st1" d="M101.6,76.2c0,3.2-5.7,6-12.5,6c-6.8,0-12.3-2.9-12.3-5.8l0,0c0,3-5.2,5.8-12,5.8c-6.7,0-12.1-2.6-12.1-5.8
					l0,0c0,3.2-5.5,6.2-12.3,6.2c-6.8,0-12.3-2.5-12.3-5.3l0,0c0,2.1-6.2,5.3-13.1,5.3S1.6,79.6,1.6,76.5v-4.3"/>
			</g>
			<path class="st0" d="M198.7,73.1l-90-37.5c-5.5-2.3-11.8-2.3-17.3,0L1,73.2"/>
		</g>
		<g>
			<line class="st0" x1="300.3" y1="160.5" x2="300.3" y2="214.5"/>
			<path class="st0" d="M336.9,228h-71.3c-1.6,0-3-1.4-3-3v-5c0-1.7,1.4-5,3-5h71.3c1.6,0,3,3.4,3,5v5
				C339.9,226.6,338.6,228,336.9,228z"/>
			<g>
				<path class="st0" d="M331.3,149.7v4.1c0,3.2-1.4,6-3.5,6c-2.1,0-3.6-2.9-3.6-5.8l0,0c0,3-1.5,5.8-3.6,5.8s-3.7-2.6-3.7-5.8l0,0
					c0,3.2-1.7,6.2-3.7,6.2s-3.7-2.5-3.7-5.3l0,0c0,2.1-1.8,5.3-3.9,5.3s-4.1-3.1-4.1-6.3"/>
				<path class="st0" d="M301.6,153.7c0,3.2-1.7,6-3.8,6c-2.1,0-3.8-2.9-3.8-5.8l0,0c0,3-1.6,5.8-3.7,5.8c-2,0-3.7-2.6-3.7-5.8l0,0
					c0,3.2-1.7,6.2-3.8,6.2c-2.1,0-3.8-2.5-3.8-5.3l0,0c0,2.1-1.9,5.3-4,5.3s-4-3.1-4-6.3v-4.3"/>
			</g>
			<path class="st0" d="M331.3,149.6L302.8,2.5c-0.4-2-3.2-2.1-3.7,0l-27.9,147.1"/>
		</g>
		<g>
			<path d="M28.2,149.5v-22.2c0-0.3,0.1-0.5,0.4-0.7c0.3-0.2,0.6-0.2,1-0.2s0.7,0.1,1,0.2c0.3,0.2,0.4,0.4,0.4,0.7v9.5h8.9v-9.5
				c0-0.3,0.1-0.5,0.4-0.7c0.3-0.2,0.6-0.2,1-0.2c0.4,0,0.7,0.1,1,0.2c0.3,0.2,0.4,0.4,0.4,0.7v22.2c0,0.3-0.1,0.6-0.4,0.7
				c-0.3,0.2-0.6,0.3-1,0.3c-0.4,0-0.7-0.1-1-0.3c-0.3-0.2-0.4-0.4-0.4-0.7v-10.4h-8.9v10.4c0,0.3-0.1,0.6-0.4,0.7s-0.6,0.3-1,0.3
				s-0.7-0.1-1-0.3C28.3,150.1,28.2,149.8,28.2,149.5z"/>
			<path d="M45.3,131.5c0-0.5,0.2-0.8,0.6-1.2l3-3.6c0.3-0.3,0.6-0.4,0.9-0.4c0.3,0,0.6,0.1,0.8,0.3c0.3,0.2,0.4,0.4,0.4,0.7v22.2
				c0,0.3-0.1,0.6-0.4,0.7c-0.3,0.2-0.6,0.3-1,0.3s-0.7-0.1-1-0.3c-0.3-0.2-0.4-0.4-0.4-0.7v-19l-1.2,1.8c-0.2,0.2-0.5,0.4-0.7,0.4
				c-0.3,0-0.5-0.1-0.7-0.3C45.4,132.1,45.3,131.8,45.3,131.5z"/>
		</g>
		<g>
			<path d="M155.3,149.5v-22.2c0-0.3,0.1-0.5,0.4-0.7c0.3-0.2,0.6-0.2,1-0.2s0.7,0.1,1,0.2c0.3,0.2,0.4,0.4,0.4,0.7v9.5h8.9v-9.5
				c0-0.3,0.1-0.5,0.4-0.7c0.3-0.2,0.6-0.2,1-0.2c0.4,0,0.7,0.1,1,0.2c0.3,0.2,0.4,0.4,0.4,0.7v22.2c0,0.3-0.1,0.6-0.4,0.7
				c-0.3,0.2-0.6,0.3-1,0.3c-0.4,0-0.7-0.1-1-0.3c-0.3-0.2-0.4-0.4-0.4-0.7v-10.4H158v10.4c0,0.3-0.1,0.6-0.4,0.7s-0.6,0.3-1,0.3
				s-0.7-0.1-1-0.3C155.4,150.1,155.3,149.8,155.3,149.5z"/>
			<path d="M173.2,149.5v-3.2c0-1,0.4-2,1.1-2.9c0.7-1,1.6-1.8,2.7-2.6l3.2-2.4c1.1-0.8,2-1.6,2.8-2.6c0.8-1,1.1-1.9,1.1-2.9
				c0-1.1-0.3-2-1-2.8s-1.7-1.2-3-1.2c-1.1,0-2,0.3-2.7,0.9s-1,1.5-1,2.7c0,0.3-0.1,0.5-0.4,0.8s-0.6,0.3-1.1,0.3
				c-0.8,0-1.3-0.5-1.3-1.6c0-1.6,0.6-3,1.9-4.1c1.2-1.1,2.8-1.6,4.6-1.6c1.9,0,3.6,0.6,4.9,1.8c1.3,1.2,2,2.7,2,4.6
				c0,1.1-0.3,2.2-0.8,3.2s-1.2,1.9-2,2.6c-0.8,0.7-1.7,1.4-2.6,2.1l-2.7,1.9c-0.8,0.6-1.5,1.2-2,1.8c-0.5,0.7-0.8,1.3-0.8,2v1.7
				h10.2c0.3,0,0.5,0.1,0.7,0.4c0.2,0.2,0.3,0.5,0.3,0.9c0,0.3-0.1,0.6-0.3,0.9c-0.2,0.3-0.4,0.4-0.7,0.4h-11.7
				c-0.3,0-0.6-0.1-0.8-0.3C173.3,150,173.2,149.8,173.2,149.5z"/>
		</g>
		<g>
			<path d="M222.1,149.5v-22.2c0-0.3,0.1-0.5,0.4-0.7c0.3-0.2,0.6-0.2,1-0.2s0.7,0.1,1,0.2c0.3,0.2,0.4,0.4,0.4,0.7v9.5h8.9v-9.5
				c0-0.3,0.1-0.5,0.4-0.7c0.3-0.2,0.6-0.2,1-0.2c0.4,0,0.7,0.1,1,0.2c0.3,0.2,0.4,0.4,0.4,0.7v22.2c0,0.3-0.1,0.6-0.4,0.7
				c-0.3,0.2-0.6,0.3-1,0.3c-0.4,0-0.7-0.1-1-0.3c-0.3-0.2-0.4-0.4-0.4-0.7v-10.4h-8.9v10.4c0,0.3-0.1,0.6-0.4,0.7s-0.6,0.3-1,0.3
				s-0.7-0.1-1-0.3C222.2,150.1,222.1,149.8,222.1,149.5z"/>
			<path d="M239.7,145.1c0-0.5,0.1-0.8,0.3-1c0.2-0.2,0.5-0.3,1-0.3c0.5,0,0.9,0.1,1.1,0.3c0.2,0.2,0.3,0.5,0.3,0.8
				c0,0.8,0.4,1.6,1.1,2.3c0.7,0.7,1.8,1,3.2,1c2.9,0,4.4-1.5,4.4-4.6V143c0-2.7-1.5-4-4.4-4c-0.6,0-1-0.4-1-1.2
				c0-0.8,0.3-1.2,1-1.2c1.3,0,2.2-0.3,2.9-0.9c0.6-0.6,1-1.6,1-3.1c0-2.6-1.2-3.8-3.7-3.8c-1.4,0-2.4,0.3-3,0.9
				c-0.6,0.6-0.9,1.4-0.9,2.2c0,0.8-0.4,1.2-1.3,1.2c-0.6,0-1-0.1-1.2-0.3c-0.2-0.2-0.3-0.6-0.3-1.1s0.1-1.1,0.3-1.7
				c0.2-0.6,0.5-1.2,1-1.7c0.5-0.6,1.2-1.1,2.1-1.4c0.9-0.4,2-0.6,3.3-0.6c4.2,0,6.3,2,6.3,5.9c0,1.4-0.2,2.6-0.7,3.5
				c-0.5,1-1.1,1.6-1.9,2c2.2,0.9,3.4,2.7,3.4,5.2v0.6c0,2.4-0.7,4.2-2,5.3c-1.3,1.1-3.1,1.7-5.2,1.7c-2.3,0-4-0.6-5.2-1.7
				C240.4,147.8,239.7,146.5,239.7,145.1z"/>
		</g>
		<g>
			<path d="M346.7,149.5v-22.2c0-0.3,0.1-0.5,0.4-0.7c0.3-0.2,0.6-0.2,1-0.2s0.7,0.1,1,0.2c0.3,0.2,0.4,0.4,0.4,0.7v9.5h8.9v-9.5
				c0-0.3,0.1-0.5,0.4-0.7c0.3-0.2,0.6-0.2,1-0.2c0.4,0,0.7,0.1,1,0.2c0.3,0.2,0.4,0.4,0.4,0.7v22.2c0,0.3-0.1,0.6-0.4,0.7
				c-0.3,0.2-0.6,0.3-1,0.3c-0.4,0-0.7-0.1-1-0.3c-0.3-0.2-0.4-0.4-0.4-0.7v-10.4h-8.9v10.4c0,0.3-0.1,0.6-0.4,0.7s-0.6,0.3-1,0.3
				s-0.7-0.1-1-0.3C346.8,150.1,346.7,149.8,346.7,149.5z"/>
			<path d="M363.7,143.9c0-0.2,0.1-0.5,0.2-0.6l8.2-16.1c0.3-0.5,0.7-0.8,1.3-0.8c0.3,0,0.6,0.1,0.9,0.3s0.4,0.5,0.4,0.8
				c0,0.2,0,0.3-0.1,0.5l-7.2,14.4h5.7v-5.5c0-0.3,0.1-0.5,0.4-0.7c0.3-0.2,0.6-0.2,1-0.2c0.4,0,0.7,0.1,1,0.2
				c0.3,0.2,0.4,0.4,0.4,0.7v5.5h1.7c0.3,0,0.5,0.1,0.7,0.4s0.3,0.6,0.3,0.9c0,0.3-0.1,0.6-0.3,0.9c-0.2,0.3-0.4,0.4-0.7,0.4h-1.7
				v4.5c0,0.3-0.1,0.5-0.4,0.7c-0.3,0.2-0.6,0.3-1,0.3c-0.4,0-0.7-0.1-1-0.3c-0.3-0.2-0.4-0.4-0.4-0.7V145h-8.2
				c-0.3,0-0.6-0.1-0.7-0.3S363.7,144.3,363.7,143.9z"/>
		</g>
		<g>
			<g>
				<line class="st2" x1="71.3" y1="45.5" x2="71.3" y2="202.5"/>
				<g>
					<polygon points="66.9,48.5 71.5,31.1 76.2,48.5 					"/>
				</g>
				<g>
					<polygon points="65.6,197.6 71.5,200.1 77.4,197.6 71.5,211.6 					"/>
				</g>
			</g>
		</g>
		<g>
			<g>
				<line class="st2" x1="130.3" y1="100.5" x2="130.3" y2="202.5"/>
				<g>
					<polygon points="125.9,103.5 130.5,86.1 135.2,103.5 					"/>
				</g>
				<g>
					<polygon points="124.6,197.6 130.5,200.1 136.4,197.6 130.5,211.6 					"/>
				</g>
			</g>
		</g>
		<g>
			<g>
				<line class="st2" x1="282.3" y1="179.5" x2="282.3" y2="202.5"/>
				<g>
					<polygon points="277.9,182.5 282.5,165.1 287.2,182.5 					"/>
				</g>
				<g>
					<polygon points="276.6,197.6 282.5,200.1 288.4,197.6 282.5,211.6 					"/>
				</g>
			</g>
		</g>
		<g>
			<g>
				<line class="st2" x1="318.3" y1="15.5" x2="318.3" y2="202.5"/>
				<g>
					<polygon points="313.9,18.5 318.5,1.1 323.2,18.5 					"/>
				</g>
				<g>
					<polygon points="312.6,197.6 318.5,200.1 324.4,197.6 318.5,211.6 					"/>
				</g>
			</g>
		</g>
	</g>
</g>
</svg>
