<?xml version="1.0" encoding="utf-8"?>
<!-- Generator: Adobe Illustrator 19.1.0, SVG Export Plug-In . SVG Version: 6.00 Build 0)  -->
<svg version="1.1" xmlns="http://www.w3.org/2000/svg" xmlns:xlink="http://www.w3.org/1999/xlink" x="0px" y="0px"
	 viewBox="0 0 40 40" style="enable-background:new 0 0 40 40;" xml:space="preserve">
<style type="text/css">
	.st0{fill:none;stroke:#000000;stroke-width:2;stroke-linecap:round;stroke-miterlimit:10;}
	.st1{fill:#020202;}
	.st2{fill:none;stroke:#000000;stroke-width:0.9665;stroke-linecap:round;stroke-miterlimit:10;}
	.st3{fill:none;stroke:#000000;stroke-linecap:round;stroke-miterlimit:10;}
	.st4{fill:none;stroke:#000000;stroke-width:3;stroke-miterlimit:10;}
	.st5{fill:none;stroke:#000000;stroke-width:1.4;stroke-miterlimit:10;}
	.st6{fill:none;stroke:#575756;stroke-width:0.8068;stroke-miterlimit:22.926;}
	.st7{fill:none;stroke:#575756;stroke-width:0.4148;stroke-miterlimit:22.926;}
	.st8{fill-rule:evenodd;clip-rule:evenodd;fill:#FFFFFF;}
	.st9{fill-rule:evenodd;clip-rule:evenodd;fill:#1D1D1B;}
	.st10{fill:#575756;}
	.st11{fill-rule:evenodd;clip-rule:evenodd;fill:#6F6F6E;}
	.st12{fill:none;stroke:#575756;stroke-width:0.4235;stroke-miterlimit:22.9256;}
	.st13{fill-rule:evenodd;clip-rule:evenodd;fill:#ECECEC;}
	.st14{fill-rule:evenodd;clip-rule:evenodd;fill:#B1B1B1;}
	.st15{fill:none;stroke:#1D1D1B;stroke-width:0.5883;stroke-miterlimit:22.9256;}
	.st16{fill-rule:evenodd;clip-rule:evenodd;fill:#575756;}
	.st17{fill:none;stroke:#9C9B9B;stroke-width:0.4124;stroke-miterlimit:22.926;}
	.st18{fill:none;stroke:#575756;stroke-width:0.4124;stroke-linecap:round;stroke-linejoin:round;stroke-miterlimit:22.926;}
	.st19{fill-rule:evenodd;clip-rule:evenodd;fill:#D9D9D9;}
	.st20{fill:none;stroke:#1D1D1B;stroke-width:0.4124;stroke-miterlimit:22.926;}
	.st21{fill:none;stroke:#575756;stroke-width:0.4124;stroke-miterlimit:22.926;}
	.st22{fill:none;stroke:#575756;stroke-width:0.8021;stroke-miterlimit:22.926;}
	.st23{fill:none;stroke:#9C9B9B;stroke-width:0.4127;stroke-miterlimit:22.926;}
	.st24{fill:none;stroke:#575756;stroke-width:0.4127;stroke-linecap:round;stroke-linejoin:round;stroke-miterlimit:22.926;}
	.st25{fill:none;stroke:#1D1D1B;stroke-width:0.4127;stroke-miterlimit:22.926;}
	.st26{fill:none;stroke:#575756;stroke-width:0.4127;stroke-miterlimit:22.926;}
	.st27{fill:none;stroke:#575756;stroke-width:0.8028;stroke-miterlimit:22.926;}
	.st28{fill:none;stroke:#575756;stroke-width:0.8274;stroke-miterlimit:22.9256;}
	.st29{fill:none;stroke:#575756;stroke-width:0.1787;stroke-miterlimit:22.9256;}
	.st30{fill:none;stroke:#575756;stroke-width:0.5863;stroke-miterlimit:22.9256;}
	.st31{fill:none;stroke:#575756;stroke-width:0.9479;stroke-miterlimit:22.9256;}
	.st32{fill:none;stroke:#575756;stroke-width:0.2047;stroke-miterlimit:22.9256;}
	.st33{fill:none;stroke:#575756;stroke-width:0.6717;stroke-miterlimit:22.9256;}
	.st34{fill:none;stroke:#575756;stroke-width:0.923;stroke-miterlimit:22.9256;}
	.st35{fill:none;stroke:#575756;stroke-width:0.1994;stroke-miterlimit:22.9256;}
	.st36{fill:none;stroke:#575756;stroke-width:0.6541;stroke-miterlimit:22.9256;}
	.st37{fill:none;stroke:#575756;stroke-width:1.0531;stroke-miterlimit:22.926;}
	.st38{fill:none;stroke:#575756;stroke-width:0.2275;stroke-miterlimit:22.926;}
	.st39{fill:none;stroke:#575756;stroke-width:0.7466;stroke-miterlimit:22.926;}
	.st40{fill:none;stroke:#575756;stroke-width:0.3576;stroke-miterlimit:22.9256;}
	.st41{fill:none;stroke:#C6C6C5;stroke-width:0.4127;stroke-linecap:round;stroke-linejoin:round;stroke-miterlimit:22.926;}
	.st42{fill:none;stroke:#575756;stroke-width:0.1748;stroke-linecap:round;stroke-linejoin:round;stroke-miterlimit:22.926;}
	.st43{fill:none;stroke:#575756;stroke-width:0.5;stroke-miterlimit:22.9256;}
	.st44{fill:none;stroke:#C6C6C5;stroke-width:0.1748;stroke-linecap:round;stroke-linejoin:round;stroke-miterlimit:22.926;}
	.st45{fill:none;stroke:#575756;stroke-width:0.2978;stroke-linecap:round;stroke-linejoin:round;stroke-miterlimit:22.926;}
	.st46{fill:none;stroke:#B1B1B1;stroke-width:0.2978;stroke-linecap:round;stroke-linejoin:round;stroke-miterlimit:22.926;}
	.st47{fill:none;stroke:#575756;stroke-width:0.4047;stroke-miterlimit:22.926;}
	.st48{fill:none;stroke:#575756;stroke-width:0.1748;stroke-miterlimit:22.926;}
	.st49{fill:#FFFFFF;stroke:#575756;stroke-width:0.5698;stroke-miterlimit:10;}
	.st50{fill:#FFFFFF;stroke:#575756;stroke-width:0.5629;stroke-miterlimit:10;}
	.st51{fill:#FFFFFF;stroke:#575756;stroke-width:0.2849;stroke-miterlimit:10;}
	.st52{fill:#FFFFFF;}
	.st53{fill:#FFFFFF;stroke:#1D1D1B;stroke-width:0.2849;stroke-miterlimit:10;}
	.st54{fill:#1D1D1B;}
	.st55{fill:none;stroke:#575756;stroke-width:0.1787;stroke-miterlimit:10;}
	.st56{fill:none;stroke:#C6C6C5;stroke-width:0.1748;stroke-miterlimit:22.926;}
	.st57{fill:none;stroke:#575756;stroke-width:0.4098;stroke-miterlimit:22.926;}
	.st58{fill:none;stroke:#575756;stroke-width:0.4098;stroke-linecap:round;stroke-linejoin:round;stroke-miterlimit:22.926;}
	.st59{fill:none;stroke:#3C3C3B;stroke-width:0.7971;stroke-miterlimit:22.926;}
	.st60{fill:none;stroke:#000000;stroke-miterlimit:10;}
	.st61{fill:none;stroke:#000000;stroke-width:0.5;stroke-miterlimit:10;}
	.st62{stroke:#000000;stroke-width:0.5;stroke-miterlimit:10;}
	.st63{fill:none;stroke:#000000;stroke-width:3;stroke-linecap:round;stroke-miterlimit:10;}
</style>
<g id="inne">
</g>
<g id="parasole">
</g>
<g id="markizy_i_zadaszenia">
</g>
<g id="Layer_13">
</g>
<g id="Layer_12">
</g>
<g id="Layer_10">
</g>
<g id="Layer_11">
</g>
<g id="podstawy">
	<g>
		<rect x="0.5" y="0.5" class="st8" width="39" height="39"/>
		<rect x="0.5" y="0.5" class="st27" width="39" height="39"/>
		<polygon class="st8" points="3.1,20.5 11.6,13.8 20.1,18.4 11.9,26.4 		"/>
		<polygon class="st24" points="2.9,20.4 11.4,13.8 19.9,18.4 11.6,26.4 		"/>
		<polygon class="st8" points="12.2,26.8 20.5,18.5 31.2,24.2 23.7,34.3 		"/>
		<polygon class="st41" points="12.2,26.8 20.5,18.5 31.2,24.2 23.7,34.3 		"/>
		<polygon class="st8" points="20.7,18.3 27.3,12.2 37,16.4 31.5,23.9 		"/>
		<polygon class="st24" points="20.7,18.3 27.3,12.2 37,16.4 31.5,23.9 		"/>
		<polygon class="st8" points="11.8,13.5 18.6,8.3 26.9,12 20.3,18 		"/>
		<polygon class="st24" points="11.8,13.5 18.6,8.3 26.9,12 20.3,18 		"/>
		<ellipse class="st8" cx="20.4" cy="10" rx="1.1" ry="0.7"/>
		<ellipse class="st24" cx="20.4" cy="10" rx="1.1" ry="0.7"/>
		<path class="st8" d="M21.4,17.7c0,0.3-0.4,0.6-0.9,0.6c-0.5,0-0.9-0.3-0.9-0.6L19.3,10c0.1,0.3,0.5,0.6,1.1,0.6
			c0.5,0,1-0.3,1.1-0.6h0L21.4,17.7z"/>
		<path class="st24" d="M21.4,17.7c0,0.3-0.4,0.6-0.9,0.6c-0.5,0-0.9-0.3-0.9-0.6L19.3,10c0.1,0.3,0.5,0.6,1.1,0.6
			c0.5,0,1-0.3,1.1-0.6h0L21.4,17.7z"/>
		<ellipse class="st8" cx="20.4" cy="10" rx="0.8" ry="0.5"/>
		<ellipse class="st24" cx="20.4" cy="10" rx="0.8" ry="0.5"/>
		<polygon class="st8" points="3.5,22.2 2.9,20.4 11.6,26.4 12,28 		"/>
		<polygon class="st24" points="3.5,22.2 2.9,20.4 11.6,26.4 12,28 		"/>
		<polygon class="st8" points="12.4,28.2 12.2,26.8 23.7,34.3 23.8,35.8 		"/>
		<polygon class="st24" points="12.4,28.2 12.2,26.8 23.7,34.3 23.8,35.8 		"/>
		<polygon class="st8" points="23.8,35.8 23.7,34.3 31.2,24.2 31.1,25.7 		"/>
		<polygon class="st24" points="23.8,35.8 23.7,34.3 31.2,24.2 31.1,25.7 		"/>
		<polygon class="st8" points="31.5,25.4 31.5,23.8 37,16.4 36.7,18.2 		"/>
		<polygon class="st24" points="31.5,25.4 31.5,23.8 37,16.4 36.7,18.2 		"/>
		<polygon class="st8" points="21.7,18.6 31.5,23.8 31.5,25.4 31.1,25.3 31.1,24.2 20.7,18.6 		"/>
		<polygon class="st24" points="21.7,18.6 31.5,23.8 31.5,25.4 31.1,25.3 31.1,24.2 20.7,18.6 		"/>
		<polygon class="st8" points="12,28 12.3,27.7 12.2,26.8 20.4,18.6 19.6,18.6 11.6,26.4 		"/>
		<polygon class="st24" points="12,28 12.3,27.7 12.2,26.8 20.4,18.6 19.6,18.6 11.6,26.4 		"/>
		<polygon class="st8" points="30.7,25.7 32.1,23.8 32.1,24.9 30.8,26.6 		"/>
		<polygon class="st24" points="30.7,25.7 32.1,23.8 32.1,24.9 30.8,26.6 		"/>
		<polygon class="st8" points="12.8,27.8 10.9,26.5 11,27.6 12.9,28.9 		"/>
		<polygon class="st24" points="12.8,27.8 10.9,26.5 11,27.6 12.9,28.9 		"/>
		<polyline class="st42" points="3.2,21.4 23.7,35.1 36.9,17.3 		"/>
		<line class="st41" x1="18.2" y1="17.5" x2="19.3" y2="17.6"/>
		<line class="st24" x1="21.7" y1="17.1" x2="22.6" y2="16.4"/>
		<path class="st8" d="M21.4,16.4c0.8,0.2,1.3,0.8,1.3,1.4c0,0.9-1,1.6-2.3,1.6c-1.3,0-2.3-0.7-2.3-1.6c0-0.6,0.6-1.2,1.3-1.4l0,1.4
			c0,0.3,0.4,0.6,0.9,0.6c0.5,0,0.9-0.3,0.9-0.6L21.4,16.4z"/>
		<path class="st24" d="M21.4,16.4c0.8,0.2,1.3,0.8,1.3,1.4c0,0.9-1,1.6-2.3,1.6c-1.3,0-2.3-0.7-2.3-1.6c0-0.6,0.6-1.2,1.3-1.4
			l0,1.4c0,0.3,0.4,0.6,0.9,0.6c0.5,0,0.9-0.3,0.9-0.6L21.4,16.4z"/>
	</g>
</g>
<g id="osłony_zewnętrzne">
</g>
<g id="osłony_wewnętrzne">
</g>
<g id="interface">
</g>
<g id="kategorie">
</g>
</svg>
